<svg version="1.1" id="Layer_1" xmlns="http://www.w3.org/2000/svg" xmlns:xlink="http://www.w3.org/1999/xlink" x="0px" y="0px"
	 width="100%" viewBox="0 0 1024 1024" enable-background="new 0 0 1024 1024" xml:space="preserve">
<path fill="#000000" opacity="1.000000" stroke="none" 
	d="
M498.234375,487.803589 
	C476.938141,471.300873 461.764191,450.926941 454.492310,425.114136 
	C448.699005,404.549927 449.632294,383.998016 455.106323,363.522247 
	C455.364868,362.555237 455.805206,361.644226 455.145355,360.112457 
	C449.457123,361.002533 443.628662,362.005249 437.772949,362.809357 
	C429.121735,363.997467 420.784424,362.820557 413.148621,358.473694 
	C398.569458,350.174347 394.673340,332.692474 404.295471,318.889435 
	C413.974854,305.004211 427.076416,294.695648 440.598541,284.920380 
	C461.435608,269.857147 483.366028,256.630646 507.002167,246.370621 
	C511.275665,244.515564 515.562988,242.683273 519.906189,241.001312 
	C522.614746,239.952393 524.255920,238.396851 524.802246,235.346954 
	C526.413574,226.352280 528.197754,217.385284 530.109863,208.449310 
	C530.994385,204.315628 527.633545,203.774780 525.388855,202.517868 
	C512.811340,195.475113 505.475739,184.926483 502.648224,170.774170 
	C497.336975,144.190460 518.696350,117.980431 544.398743,113.701050 
	C550.019226,112.765259 555.617310,112.156212 561.246887,113.601257 
	C565.135620,114.599472 568.310547,113.220802 571.437317,110.904083 
	C589.958679,97.181290 610.520203,94.173813 632.575989,99.688469 
	C643.557556,102.434219 652.994324,108.201462 660.361145,116.576736 
	C667.774109,125.004478 675.709229,128.930084 687.598572,129.297333 
	C716.388855,130.186661 739.855347,156.892776 739.254272,185.680862 
	C739.106689,192.750031 737.471680,199.513046 734.067444,205.791565 
	C733.310486,207.187698 732.017395,208.440704 732.657349,211.154282 
	C737.033508,209.367249 741.288940,207.711548 745.478943,205.904144 
	C762.418457,198.597137 780.019592,193.749435 798.468994,192.876099 
	C810.765869,192.294022 822.843872,193.840820 832.949158,201.977722 
	C848.849365,214.780731 851.657043,231.255692 841.514648,249.009857 
	C830.581177,268.148804 813.620422,280.619476 794.994995,291.000092 
	C777.145874,300.948059 757.745667,307.038239 737.819397,311.405243 
	C732.666748,312.534454 731.823486,314.063873 735.057922,318.488647 
	C747.475525,335.476196 750.758911,355.045776 752.501526,375.388367 
	C753.926880,392.027832 752.689514,408.252258 748.786255,424.362335 
	C742.338501,450.974091 726.551697,471.258148 705.391724,487.813385 
	C701.723999,490.682953 697.801880,493.229248 693.977417,495.896362 
	C689.676636,498.895630 689.522583,500.055511 693.434326,503.299255 
	C705.097900,512.971069 716.868286,522.514648 728.495789,532.229309 
	C741.414307,543.022644 754.252502,554.004333 764.334595,567.584290 
	C776.405396,583.842773 771.159912,602.617065 752.674866,610.907532 
	C746.239868,613.793579 739.453918,615.370544 732.338623,615.363403 
	C730.565979,615.361633 728.645996,614.879822 726.595764,616.734558 
	C727.734985,624.049866 728.928345,631.711304 730.121033,639.372864 
	C730.403687,641.188232 731.288940,642.150940 733.228088,642.701111 
	C753.815002,648.542603 765.193909,664.685303 764.483093,686.822510 
	C763.867859,705.984131 751.724365,722.103027 732.284851,728.795227 
	C727.618835,730.401550 725.248718,732.915405 724.043701,737.609070 
	C717.464294,763.236084 710.150818,788.652283 700.042236,813.153809 
	C693.625916,828.705811 685.428833,843.019531 669.271423,852.567383 
	C681.958801,852.499939 693.388123,852.800537 704.856384,852.316406 
	C717.477173,851.783691 730.115051,851.688416 742.776611,852.394775 
	C754.563538,853.052429 766.428101,853.252686 778.221313,852.141663 
	C782.135681,851.773010 785.881287,852.460632 789.568909,853.176025 
	C792.512329,853.747009 795.047119,855.731934 795.275696,859.292175 
	C795.523804,863.157593 792.679504,864.346069 789.781006,865.380432 
	C786.148804,866.676636 782.401245,867.322632 778.525757,867.303406 
	C753.529297,867.179626 728.532776,867.060974 703.536133,866.986511 
	C684.562683,866.929993 665.589050,866.917969 646.615540,866.926758 
	C593.011230,866.951599 539.406921,867.024109 485.802582,867.027466 
	C429.996307,867.030945 374.186493,867.332825 318.385529,866.773010 
	C295.561554,866.544006 272.759827,867.448486 249.941284,866.984009 
	C229.626221,866.570496 209.301605,866.589966 188.980881,866.523438 
	C185.337631,866.511475 181.696014,867.098694 178.047119,867.236938 
	C176.236343,867.305603 174.340118,867.245117 172.607986,866.777893 
	C169.831818,866.029053 167.113098,864.831604 166.568237,861.528198 
	C166.020370,858.206787 168.331650,856.324280 170.627991,854.610596 
	C173.440964,852.511475 176.781097,852.266602 180.138657,852.270142 
	C181.130722,852.271240 182.175171,852.689758 183.106369,852.493530 
	C191.195602,850.788574 190.986313,851.124146 188.634232,844.175903 
	C187.444946,840.662659 186.989273,837.051208 186.988388,833.373352 
	C186.973297,771.213318 186.981934,709.053345 186.949005,646.893311 
	C186.943451,636.390442 191.387573,627.893921 198.643372,620.725952 
	C203.144211,616.279602 208.110184,612.374390 213.336700,608.750244 
	C219.177948,604.699768 225.708694,604.366028 233.503555,604.611145 
	C228.707794,597.748474 227.150269,590.742798 226.544174,583.450684 
	C226.378067,581.452087 224.657364,581.589111 223.173996,581.255310 
	C217.295990,579.932312 211.631821,578.025452 206.798996,574.247559 
	C202.086700,570.563782 199.645935,565.734192 200.934738,559.803040 
	C202.217575,553.899109 206.433670,550.427856 212.163666,548.909912 
	C215.539139,548.015808 218.990738,547.440735 222.531845,547.636719 
	C224.470276,547.744080 226.590164,547.424805 226.516052,544.972046 
	C226.321945,538.547546 231.195084,535.694092 235.223282,532.414001 
	C247.120026,522.726746 261.306427,518.780151 276.171021,516.770813 
	C278.283539,516.485229 280.233429,516.307800 280.579346,513.710266 
	C282.175232,501.727814 294.136993,495.686371 307.977875,497.983154 
	C316.582733,499.411011 322.574432,503.551910 324.111084,512.503113 
	C324.633148,515.544434 326.483307,516.235901 328.884369,516.590759 
	C344.243561,518.860779 358.496979,524.051208 371.556702,532.507080 
	C376.024628,535.399902 380.046295,538.514587 380.163025,544.471924 
	C380.216217,547.185303 381.858856,547.712830 384.159698,547.676086 
	C388.148132,547.612305 392.136902,547.494080 396.040527,548.709351 
	C402.684387,550.777893 406.276306,555.357178 406.938446,562.127930 
	C407.522919,568.104370 404.557037,572.273438 399.476776,575.130676 
	C394.352509,578.012634 388.832214,579.847168 383.158325,581.228882 
	C381.251923,581.693054 379.358490,582.184509 379.444611,584.496948 
	C379.677673,590.755798 378.197845,596.649475 375.486450,602.396545 
	C376.511139,602.950073 377.077271,603.531494 377.615204,603.506470 
	C393.993988,602.745239 403.401703,614.186523 413.632660,624.104065 
	C424.936401,635.061584 424.341492,649.237244 423.933105,663.309875 
	C423.822205,667.131226 423.375946,670.947754 423.373383,674.766663 
	C423.336060,729.928528 423.348877,785.090332 423.345734,840.252197 
	C423.345642,842.084900 423.742767,844.061157 423.199371,845.723572 
	C421.536469,850.811035 424.727448,851.860291 428.460541,852.550537 
	C429.592987,852.759949 430.787048,852.660828 431.952881,852.660950 
	C471.610657,852.665283 511.268433,852.664490 552.310974,852.664490 
	C536.570984,844.156738 533.002869,829.161865 527.434387,815.218140 
	C515.668213,785.755493 507.188599,755.321533 500.377228,724.436340 
	C496.657623,707.570129 495.256531,690.282043 493.519409,673.073547 
	C492.380829,661.794495 491.526276,650.573425 491.580170,639.229675 
	C491.651642,624.192261 494.060608,609.441895 496.162659,594.639832 
	C496.507660,592.210449 497.843475,589.073181 494.922760,587.970581 
	C491.055481,586.510620 488.067780,581.512634 482.804230,584.685425 
	C471.467163,591.519409 460.843323,590.750549 450.685944,581.874939 
	C443.744751,575.809631 434.943451,572.572144 427.259399,567.616516 
	C411.514069,557.461914 403.726135,542.335327 400.786346,524.298706 
	C404.044586,516.279480 398.035400,513.024414 393.234192,508.708252 
	C381.220276,497.908173 369.505646,486.772888 357.766571,475.670959 
	C354.652466,472.725891 352.456726,471.246674 347.685303,474.066742 
	C331.620239,483.561798 314.449554,482.161102 301.366669,468.229553 
	C293.048981,459.372314 283.808350,451.416779 275.477844,442.533783 
	C263.555389,429.820587 263.428406,416.687805 275.796997,404.328247 
	C285.340546,394.791534 295.163910,385.538544 305.844177,377.247650 
	C315.541748,369.719604 325.095123,369.564575 333.632782,378.399719 
	C345.530029,390.711517 356.823273,403.632172 367.947296,416.657562 
	C376.145966,426.257629 375.880035,437.013611 370.294037,447.904175 
	C369.154114,450.126556 367.880096,452.280212 366.742432,454.503662 
	C365.564056,456.806763 365.630402,458.891846 367.718262,460.804108 
	C370.173767,463.053070 372.303162,465.674866 374.851105,467.803253 
	C387.285645,478.190308 398.154907,490.120758 408.929810,502.141937 
	C411.295135,504.780853 413.363098,506.273132 416.892029,503.743073 
	C419.765625,501.682892 423.343384,502.695587 426.634918,502.896423 
	C441.606171,503.809845 456.070496,507.868805 470.811188,510.053711 
	C484.934387,512.147095 498.026489,507.127167 510.280579,500.204620 
	C511.131866,499.723694 511.932739,499.040924 512.037964,497.253815 
	C508.212769,493.635773 502.498047,492.013580 498.234375,487.803589 
M742.136414,292.533936 
	C756.636597,288.786499 771.008606,284.495697 784.630127,278.299011 
	C803.371887,269.773010 820.005188,258.377655 830.748047,240.061752 
	C835.544128,231.884750 834.218689,223.762451 827.834839,216.789474 
	C820.382935,208.649811 810.478577,207.608536 800.770508,207.825500 
	C774.713623,208.407852 750.914856,217.353271 728.740112,230.375397 
	C701.336609,246.468079 676.570679,265.885864 656.427124,290.816223 
	C653.446411,294.505188 649.718933,298.158203 643.780334,297.980164 
	C643.780334,296.559570 643.420898,295.269775 643.839905,294.325348 
	C646.195435,289.016144 643.310730,286.965607 638.795227,285.933136 
	C631.203552,284.197235 623.668701,282.305908 615.961182,280.971954 
	C592.308899,276.878387 568.563904,274.359222 544.556519,275.456848 
	C535.232483,275.883148 526.323608,277.588593 518.665222,284.107513 
	C502.742340,297.661255 489.640289,313.284882 480.322723,332.068268 
	C466.517395,359.898682 461.042511,388.929291 468.550415,419.482025 
	C476.340942,451.184662 496.829407,473.263000 524.424683,489.011566 
	C546.393188,501.548981 570.826233,505.794281 595.765137,506.485443 
	C609.666565,506.870728 623.511047,505.070312 637.334106,502.829712 
	C668.529907,497.773224 694.407288,483.479736 715.031677,459.795776 
	C737.773254,433.680481 741.989929,402.617828 738.211243,369.551361 
	C736.218628,352.114594 730.804077,335.955872 721.636292,320.945587 
	C719.397766,317.280426 717.499451,315.091003 713.125977,317.169128 
	C712.242981,317.588715 711.214111,317.738983 710.234497,317.911591 
	C702.994568,319.187073 695.743530,320.393860 688.917664,316.303864 
	C683.999084,313.356659 682.769775,309.282349 685.960815,305.141449 
	C690.625183,299.088654 695.151917,292.820465 700.547852,287.460022 
	C721.716492,266.430450 745.712280,249.263458 772.604370,236.219421 
	C783.743530,230.816345 795.197388,226.342300 807.730103,225.917267 
	C815.662903,225.648239 822.478271,227.411636 825.442627,235.694107 
	C826.081055,237.477844 826.822998,239.164261 825.357605,240.822250 
	C823.972046,242.389847 822.245117,242.530457 820.336182,241.888428 
	C816.677673,240.657928 812.925171,240.185730 809.049683,240.248337 
	C795.644226,240.464890 783.899170,245.787521 772.339417,251.844147 
	C750.513489,263.279694 731.762268,278.993683 712.807739,294.429901 
	C711.034790,295.873749 709.597046,297.601166 709.131531,300.239563 
	C720.087341,297.651337 730.698914,295.144409 742.136414,292.533936 
M258.442230,623.386902 
	C254.125443,622.792847 250.059937,621.427734 246.147964,619.520081 
	C244.214539,618.577271 242.281342,617.615601 240.063553,617.380493 
	C220.065125,615.260437 200.351700,632.994446 200.336761,653.206909 
	C200.313141,685.173462 200.250519,717.140320 200.357330,749.106567 
	C200.455750,778.568298 199.890015,808.036194 201.295456,837.488892 
	C201.736008,846.721436 207.415466,852.648438 216.719391,852.650269 
	C276.863373,852.662109 337.007385,852.662415 397.151367,852.651611 
	C405.428070,852.650146 409.606812,848.754517 409.613739,840.585144 
	C409.668274,776.442688 409.640869,712.300171 409.663940,648.157715 
	C409.664856,645.591736 409.438232,642.936401 407.765808,641.083618 
	C402.528595,635.281799 398.290497,628.645508 392.382721,623.389038 
	C385.158539,616.961365 375.990967,614.543579 367.942383,617.783630 
	C355.733734,622.698364 343.307648,624.747009 330.591858,625.209595 
	C312.788971,625.857300 294.942535,625.519470 277.119232,625.274292 
	C271.174316,625.192444 265.243286,624.099976 258.442230,623.386902 
M627.493774,825.098572 
	C629.197693,829.288330 631.314026,833.279297 634.325684,836.647583 
	C638.526001,841.345459 643.395813,845.552795 650.175415,844.490845 
	C659.707703,842.997559 667.664185,838.284729 673.474609,830.433533 
	C681.057373,820.187439 686.752563,808.860901 690.684143,796.814697 
	C702.202515,761.523254 715.335999,726.655640 718.962708,689.249451 
	C720.503601,673.356262 718.640259,657.813416 715.905090,642.258423 
	C715.401245,639.392639 714.282166,638.227661 711.164673,639.006958 
	C708.127380,639.766113 704.932190,639.872864 701.821411,640.361938 
	C691.331604,642.011169 680.784546,643.139587 670.194397,643.860596 
	C666.470642,644.114075 665.424744,645.927185 665.234314,649.660767 
	C664.437561,665.279236 657.392517,677.105774 643.196411,684.399841 
	C631.058960,690.636108 617.768982,690.575378 604.758545,691.156006 
	C589.130554,691.853455 573.432861,691.753174 557.793701,691.198669 
	C544.900757,690.741577 531.831116,690.467041 519.616150,685.272705 
	C516.146851,683.797363 512.732117,682.193665 509.490143,680.737671 
	C508.141541,681.668579 508.299164,682.748474 508.431915,683.689514 
	C509.796204,693.360352 510.651184,703.145447 512.713745,712.667847 
	C520.169250,747.087952 529.932129,780.882385 541.554138,814.127014 
	C543.911499,820.870361 546.345398,827.695312 550.520264,833.564392 
	C553.952515,838.389465 557.660095,844.727356 564.390991,843.312500 
	C573.445251,841.409241 582.366333,837.663025 587.461243,829.080811 
	C593.676331,818.611755 596.583008,807.044922 596.933777,794.862610 
	C597.317566,781.534546 593.053101,771.143311 579.505737,766.118530 
	C575.662109,764.692932 571.979858,762.526917 569.204346,759.251221 
	C567.685303,757.458496 565.960144,755.693542 567.305725,753.069702 
	C568.604370,750.537354 571.098816,750.184814 573.366150,750.749756 
	C582.358765,752.990234 591.513794,754.910706 599.728027,759.412292 
	C605.661560,762.664001 606.887634,769.205750 609.176392,774.809082 
	C615.830078,791.098938 619.412109,808.516357 627.493774,825.098572 
M549.091675,126.564903 
	C535.760132,128.887192 525.621704,135.963455 519.451782,147.907516 
	C514.301453,157.877853 514.676880,168.324615 520.554443,177.929291 
	C525.551392,186.094940 532.696472,191.405502 543.013306,190.686234 
	C546.289307,190.457825 547.311218,192.258347 547.375305,195.303543 
	C547.484863,200.515945 546.150696,205.505005 545.327148,210.567215 
	C543.359802,222.660004 542.572693,234.943085 539.419189,246.848236 
	C538.712769,249.515121 537.824768,251.922592 535.280090,253.345474 
	C532.227783,255.052216 531.636047,257.751434 532.011841,261.305695 
	C535.443726,261.739777 538.667542,261.514160 541.989075,261.249878 
	C549.919800,260.618866 557.886475,260.126068 565.836487,260.155884 
	C571.616760,260.177551 577.437256,260.842590 583.160889,261.729858 
	C590.100220,262.805603 597.188660,261.813202 604.011536,263.138123 
	C616.868164,265.634674 629.625854,268.654968 642.392151,271.598511 
	C654.013855,274.278137 655.291321,273.748871 660.556152,262.687378 
	C661.409790,260.893707 662.127686,259.001373 662.634094,257.082275 
	C664.708374,249.222061 666.602417,241.313995 668.704651,233.461502 
	C670.802612,225.625473 671.340759,217.335114 675.161560,210.004395 
	C678.110474,204.346573 679.916992,204.267578 685.283875,207.794846 
	C687.488220,209.243591 688.175964,212.467743 691.301270,212.621536 
	C711.166992,213.599121 723.593506,207.674881 725.478210,184.479263 
	C727.209167,163.175568 703.099670,135.943436 675.369873,143.681442 
	C667.477112,145.883942 666.640564,145.267761 662.094055,138.773682 
	C660.283203,136.187119 658.475525,133.589096 656.506714,131.123825 
	C645.071228,116.804695 629.540710,110.767609 611.849548,110.772575 
	C597.715027,110.776535 585.285217,116.236649 575.269287,126.591751 
	C573.897827,128.009689 572.254883,129.240128 570.553955,130.247269 
	C567.795044,131.880920 564.249878,132.478256 562.196106,130.131226 
	C558.656677,126.086365 554.453369,126.214012 549.091675,126.564903 
M652.554077,597.936768 
	C651.917053,586.994690 651.244202,576.054443 650.658020,565.109680 
	C650.361816,559.579407 649.310852,558.697510 643.912598,559.725830 
	C638.469421,560.762756 632.933044,561.077759 627.593323,559.628662 
	C617.413269,556.865967 607.137329,555.994385 596.613647,556.277100 
	C584.295471,556.608032 571.957214,556.478821 559.634399,556.224304 
	C553.718201,556.102112 547.816101,554.850342 542.409851,558.605591 
	C541.314819,559.366272 539.534241,559.243896 538.057922,559.333130 
	C532.701965,559.656677 527.481934,558.702454 522.254883,557.654541 
	C518.614075,556.924683 515.582947,556.727844 515.028687,562.141846 
	C514.170410,570.526367 512.307190,578.803101 511.047882,587.152344 
	C508.154358,606.336304 505.286560,625.526245 505.342194,645.005859 
	C505.380219,658.316345 511.605560,667.078613 524.175476,671.758423 
	C533.186951,675.113403 542.703735,676.416565 552.049805,676.407288 
	C575.966064,676.383545 599.982361,678.557068 623.791382,674.598633 
	C635.626892,672.630920 646.099121,668.424194 649.951904,655.515686 
	C651.564514,650.112671 652.549255,644.504211 652.605713,638.855957 
	C652.738831,625.530334 652.630432,612.202271 652.554077,597.936768 
M332.365784,611.646667 
	C335.721100,611.936462 338.961426,611.024475 342.257782,610.727600 
	C357.199036,609.382080 362.558319,604.989197 365.708832,590.350830 
	C367.898376,580.177246 366.261566,569.796448 366.585876,559.514771 
	C366.660370,557.153320 365.359802,556.549500 362.978821,556.828491 
	C354.747375,557.792664 346.482391,559.213623 338.236389,559.173706 
	C311.321014,559.043213 284.369568,560.827515 257.485352,557.585083 
	C252.027130,556.926819 246.444733,555.716003 240.448410,556.379333 
	C240.455963,567.373718 239.093857,578.274170 241.658340,588.824036 
	C244.317261,599.762451 250.251541,608.346924 262.648407,610.010620 
	C268.722412,610.825806 274.796936,611.669739 280.954620,611.658142 
	C297.768311,611.626404 314.582092,611.646667 332.365784,611.646667 
M721.681091,544.822998 
	C717.261658,541.041992 712.893005,537.199768 708.412537,533.492493 
	C698.300659,525.125427 688.174866,516.773926 677.963562,508.529022 
	C674.911682,506.064819 659.129272,510.585114 657.669250,514.221130 
	C657.314636,515.104431 657.442017,516.182556 657.354492,517.171692 
	C656.704712,524.516235 658.374817,531.742737 658.543884,539.056763 
	C658.600159,541.489990 658.906067,544.431885 661.704102,545.994934 
	C663.171204,546.814514 663.215027,548.409485 663.386475,549.938782 
	C665.088684,565.122498 666.018677,580.353333 666.365356,595.625488 
	C666.413269,597.735107 665.815552,599.950989 667.541016,602.768555 
	C672.304138,600.316101 677.591980,602.888245 683.201965,602.321411 
	C681.580566,598.963806 678.329773,598.200378 677.135498,595.453064 
	C676.335205,593.612305 675.026001,591.929443 676.859680,589.999756 
	C678.360779,588.420044 679.805481,586.632019 682.357300,587.454956 
	C684.400879,588.114014 686.583008,588.638306 688.366943,589.758606 
	C698.081299,595.858826 708.529358,599.966858 719.933411,601.221863 
	C730.447876,602.378906 740.919006,602.260498 750.463928,596.725159 
	C757.386047,592.710754 758.906189,587.661621 755.802490,580.367310 
	C753.809143,575.682373 750.550171,571.925293 747.172363,568.243347 
	C739.504333,559.884766 730.436829,553.047241 721.681091,544.822998 
M510.342896,259.940918 
	C485.191498,271.317505 462.395294,286.576111 440.302704,302.903992 
	C431.774200,309.207123 423.067444,315.477295 416.715057,324.264587 
	C413.500214,328.711670 410.733765,333.424500 413.209167,339.009033 
	C415.869873,345.011658 421.168823,347.876587 427.440155,348.568054 
	C438.185028,349.752777 448.194244,346.938416 457.740997,342.183838 
	C459.936829,341.090271 461.317291,339.269531 462.257416,337.050659 
	C468.981598,321.180817 477.872009,306.614044 488.874878,293.365845 
	C495.669067,285.185181 502.007111,276.237915 511.689056,271.339600 
	C518.006348,268.143524 519.393433,263.570190 519.305786,257.392059 
	C516.106689,257.134888 513.715149,258.937042 510.342896,259.940918 
M356.652161,422.880188 
	C347.038269,412.090088 337.506927,401.224884 327.780273,390.537445 
	C321.741089,383.901733 318.574127,383.993469 311.970154,390.085663 
	C308.435760,393.346100 304.611328,396.293457 301.096893,399.573975 
	C295.035248,405.232178 288.040863,409.951691 283.124146,416.765167 
	C279.341278,422.007385 279.545715,426.393311 283.694519,431.225586 
	C291.493439,440.309296 299.544464,449.196381 308.610626,457.023041 
	C313.659821,461.381836 318.355103,466.702332 326.020477,466.684509 
	C335.897583,466.661560 353.633698,457.502777 358.886322,440.819580 
	C360.894623,434.441040 361.237091,428.885223 356.652161,422.880188 
M491.098267,573.051147 
	C490.655396,574.559998 489.416016,575.915161 490.108612,577.662964 
	C498.429443,577.614746 498.408356,577.601074 499.711609,569.784241 
	C500.174316,567.008850 500.793884,564.257568 501.403442,561.508972 
	C504.432892,547.848572 510.287872,535.071045 513.902832,521.591614 
	C514.405640,519.716736 515.457825,517.892151 513.692566,515.460876 
	C493.313080,525.314758 471.992065,527.159485 448.686768,520.941650 
	C454.271545,525.745544 458.838104,529.522217 463.234985,533.487122 
	C472.481415,541.825134 482.479462,549.448730 489.257904,560.188721 
	C491.615936,563.924866 493.575684,567.776672 491.098267,573.051147 
M574.499878,541.648499 
	C586.809631,540.963867 599.042236,542.932983 611.348145,542.716187 
	C615.174011,542.648743 616.843933,541.381042 616.692566,537.479431 
	C616.518677,532.996704 616.477295,528.492859 616.708984,524.015320 
	C616.907593,520.177917 615.273499,518.652893 611.700134,519.507080 
	C608.087891,520.370544 604.460754,520.271362 600.812805,520.411621 
	C586.991394,520.942810 573.320862,519.518372 559.742432,517.179932 
	C556.867065,516.684753 555.852173,517.563965 555.260498,520.130981 
	C553.996765,525.613342 552.769714,531.120117 551.124023,536.493347 
	C549.911438,540.452393 551.310547,541.684570 555.043518,541.646851 
	C561.195129,541.584717 567.347839,541.641418 574.499878,541.648499 
M274.056671,530.564941 
	C264.852539,532.817139 255.267670,534.137390 247.464554,540.887268 
	C255.870834,545.530884 350.157104,546.423828 357.908661,542.198425 
	C357.499176,539.832642 355.347748,539.306885 353.678986,538.432983 
	C341.500122,532.054993 328.266449,529.972534 314.763824,529.414307 
	C301.477539,528.865112 288.181824,529.008118 274.056671,530.564941 
M418.201324,521.776917 
	C415.926025,523.914917 415.978119,525.877441 418.254242,528.129944 
	C421.198517,531.043701 423.689819,534.428284 426.719513,537.240173 
	C436.325867,546.156006 445.971283,555.010254 454.699066,564.828369 
	C457.437622,567.909058 460.685181,570.596375 463.963440,573.121460 
	C467.171143,575.592163 471.134094,574.246338 474.683441,570.254944 
	C477.617249,566.955811 474.888794,565.158386 473.019104,563.208191 
	C469.915955,559.971375 466.835480,556.678284 463.444916,553.757690 
	C450.632782,542.721619 437.637695,531.897400 424.863586,520.818115 
	C422.275604,518.573486 420.504517,518.024780 418.201324,521.776917 
M732.348511,703.477966 
	C732.755859,706.342468 730.190613,709.143250 732.021484,712.078125 
	C742.574524,709.372375 751.725098,693.784851 750.601685,680.385010 
	C749.827332,671.148376 741.688049,657.672363 733.147827,657.420593 
	C733.029541,672.474243 734.383789,687.548889 732.348511,703.477966 
M582.236572,852.517090 
	C598.391663,852.778564 614.524109,851.349609 630.951416,852.223938 
	C617.783386,843.806824 614.542542,829.394226 607.814819,816.787170 
	C603.140930,831.631958 597.270874,845.226379 582.236572,852.517090 
M693.927063,627.365112 
	C697.681702,626.757568 701.460754,626.268433 705.183167,625.504028 
	C708.055847,624.914062 711.397095,624.596375 710.583191,620.101013 
	C709.920532,616.440735 708.602051,613.906616 704.151367,614.342590 
	C698.371460,614.908813 692.459778,614.619446 686.791626,615.688721 
	C681.811279,616.628296 676.852112,616.158630 671.897034,616.739441 
	C665.623474,617.474792 667.599060,621.840393 667.397339,625.284119 
	C667.161743,629.307495 670.244080,628.710144 672.629211,628.615356 
	C679.432617,628.345276 686.229431,627.911865 693.927063,627.365112 
M531.034058,545.615356 
	C534.321350,545.237488 534.570618,542.450806 535.180298,540.133972 
	C537.240540,532.304321 538.969910,524.382507 541.219360,516.609802 
	C542.337158,512.747131 540.363159,511.650208 537.481079,510.457092 
	C533.821350,508.942078 533.164185,511.583435 532.360962,513.905518 
	C529.657166,521.722046 526.993713,529.553589 524.428589,537.416504 
	C522.294617,543.957764 523.067139,544.970825 531.034058,545.615356 
M643.636780,541.089844 
	C644.324951,534.589905 642.391602,528.232300 642.587708,521.743713 
	C642.649170,519.707764 643.695007,516.649231 639.796448,516.627319 
	C633.278625,516.590759 631.334106,517.823486 631.303589,522.114075 
	C631.259827,528.260803 631.309143,534.408508 631.362610,540.555420 
	C631.382385,542.836487 630.962036,545.901245 634.477539,545.488770 
	C637.693542,545.111511 642.619934,548.306396 643.636780,541.089844 
M681.820679,234.167725 
	C681.294922,238.322250 679.340881,242.242447 679.499878,247.144577 
	C686.717957,242.467987 691.897034,237.162964 692.817139,228.640945 
	C693.213623,224.968521 691.335144,223.750671 688.197266,222.922272 
	C684.687256,221.995651 684.258972,224.532944 683.565979,226.617355 
	C682.841858,228.795654 682.535095,231.112686 681.820679,234.167725 
M390.998138,560.196167 
	C387.496307,558.543579 383.798340,559.301331 381.167969,561.290405 
	C379.052582,562.890137 381.277954,565.754822 381.915283,568.512329 
	C385.135651,567.318665 388.157379,566.478210 390.898102,565.084961 
	C392.743500,564.146912 394.981812,562.548584 390.998138,560.196167 
M226.575439,562.802307 
	C223.868210,559.562317 217.362701,559.291138 213.818542,562.270508 
	C217.031067,566.368225 220.649094,567.882263 226.382034,567.391052 
	C226.461395,566.147766 226.543823,564.856323 226.575439,562.802307 
M300.339111,510.952332 
	C297.958954,511.821350 295.078522,512.143066 294.970276,515.727783 
	C297.565674,515.727783 299.982544,515.699951 302.398529,515.735474 
	C304.885651,515.771973 307.386841,517.715149 310.152283,515.609375 
	C308.481659,511.217926 304.859985,510.759979 300.339111,510.952332 
z"/>
<path fill="#000000" opacity="1.000000" stroke="none" 
	d="
M245.985535,441.356995 
	C246.398254,444.604767 247.597092,447.096741 248.960114,449.625366 
	C253.457031,457.967926 258.142700,466.259399 257.368042,476.324738 
	C256.678314,485.286713 252.734268,492.864594 247.734955,500.018860 
	C246.533463,501.738312 244.794434,502.740021 242.525131,501.863525 
	C240.144089,500.943817 238.640671,499.426392 238.619339,496.679779 
	C238.601990,494.444855 239.209961,492.486908 240.302704,490.526520 
	C242.242020,487.047394 243.897186,483.459869 244.861176,479.511047 
	C246.536819,472.647095 245.725769,466.476257 241.632980,460.547699 
	C236.550598,453.185608 232.964905,445.232086 233.626022,435.895264 
	C234.020844,430.319580 236.248566,425.583344 239.878906,421.552032 
	C241.791580,419.428192 244.347748,417.730774 247.360306,419.839417 
	C250.054337,421.725128 249.702362,424.442017 248.702179,427.034241 
	C246.964767,431.537140 245.554642,436.075867 245.985535,441.356995 
z"/>
<path fill="#000000" opacity="1.000000" stroke="none" 
	d="
M839.617920,859.080444 
	C839.557617,859.940613 839.513062,860.442261 839.386719,860.922302 
	C838.018982,866.115234 833.943298,867.320679 829.398193,867.235840 
	C823.457581,867.125000 816.581909,868.953308 813.191528,861.715210 
	C811.597656,858.312256 813.176392,855.007324 815.720947,852.700012 
	C820.462280,848.400513 835.013306,850.578918 838.610596,855.926208 
	C839.142883,856.717529 839.277283,857.776611 839.617920,859.080444 
z"/>
<path fill="#000000" opacity="1.000000" stroke="none" 
	d="
M572.031250,395.098938 
	C571.602722,398.972260 569.786499,401.630951 567.118713,403.851898 
	C563.284424,407.044037 563.334778,410.295258 567.229614,413.790039 
	C567.956116,414.441895 568.862427,414.940247 569.759277,415.347534 
	C575.614441,418.006042 576.327026,419.259155 574.232483,423.407806 
	C571.813599,428.198975 566.867737,429.984192 562.566772,427.353119 
	C560.045532,425.810883 557.808472,423.804230 555.173950,421.801575 
	C552.811035,424.161987 550.576660,426.643860 547.303955,427.723755 
	C542.963501,429.155945 539.321899,428.261261 536.846863,424.394745 
	C534.825745,421.237335 535.084106,418.218445 539.027405,416.712402 
	C543.456421,415.020813 546.326538,411.704010 549.091309,408.123444 
	C548.300537,405.424042 545.846619,404.266846 544.372864,402.320648 
	C538.702148,394.831848 541.049011,388.177002 550.278503,387.000366 
	C556.204773,386.244843 562.175720,387.525391 567.872437,389.405182 
	C570.243042,390.187408 571.396606,392.330811 572.031250,395.098938 
z"/>
<path fill="#000000" opacity="1.000000" stroke="none" 
	d="
M615.792419,389.313293 
	C619.938171,380.464874 627.630005,376.132660 635.047119,378.146545 
	C644.149780,380.618103 648.710327,389.480835 646.405273,399.350616 
	C643.707520,410.902130 635.516418,414.460968 625.526062,412.160950 
	C617.489502,410.310730 612.889954,400.602539 615.184387,391.117798 
	C615.301025,390.635406 615.506897,390.174561 615.792419,389.313293 
z"/>
<path fill="#000000" opacity="1.000000" stroke="none" 
	d="
M515.074707,394.772827 
	C509.854187,402.124878 504.015778,403.990417 496.870026,400.869415 
	C489.950500,397.847137 486.108643,389.123383 487.938721,380.589020 
	C490.014313,370.909637 498.744080,365.314362 507.622162,367.973083 
	C515.666199,370.382050 520.176086,381.404327 516.929016,390.824554 
	C516.499023,392.072083 515.820068,393.233795 515.074707,394.772827 
z"/>
<path fill="#000000" opacity="1.000000" stroke="none" 
	d="
M656.538208,434.146515 
	C653.069824,434.730804 650.147583,433.946808 647.362244,432.962402 
	C644.444336,431.931213 642.065369,429.965698 641.770508,426.610229 
	C641.471680,423.210510 642.934570,420.496674 645.871216,418.674713 
	C649.718201,416.287994 653.917236,415.398254 658.212158,416.863861 
	C662.129944,418.200653 665.223206,420.581787 665.347534,425.345917 
	C665.498535,431.136292 661.529724,432.871796 656.538208,434.146515 
z"/>
<path fill="#000000" opacity="1.000000" stroke="none" 
	d="
M475.036255,406.323486 
	C480.117706,401.064758 485.291748,400.330231 490.342346,403.915100 
	C492.782135,405.646820 494.366577,408.038788 493.970245,411.093689 
	C493.535217,414.446381 491.759186,417.048004 488.251434,417.897369 
	C483.826324,418.968781 479.707855,418.521729 476.178833,415.220978 
	C473.448669,412.667358 473.138153,409.858368 475.036255,406.323486 
z"/>
<path fill="#000000" opacity="1.000000" stroke="none" 
	d="
M229.728012,686.681396 
	C240.245422,677.625366 252.161285,678.962402 264.150543,680.826050 
	C265.567261,681.046326 266.644012,681.885620 266.823883,683.409180 
	C267.024231,685.106262 266.057953,686.291992 264.702271,687.080872 
	C261.736847,688.806641 258.390472,689.121216 255.072998,689.296692 
	C250.527985,689.536926 246.132553,690.393250 242.087112,692.457825 
	C236.457474,695.330933 233.276108,699.862183 233.289505,706.393860 
	C233.329880,726.057190 233.277237,745.720886 233.386719,765.383728 
	C233.425308,772.316772 238.059448,776.644531 245.027618,776.657837 
	C252.503128,776.672180 259.978668,776.661072 267.919006,776.661072 
	C266.126373,772.432495 263.852448,768.821106 263.072174,764.911621 
	C260.319275,751.119202 262.725311,738.178650 270.996674,726.592224 
	C273.963287,722.436584 276.231964,722.261169 279.895752,725.730835 
	C281.804108,727.538025 283.539368,729.527954 285.715149,731.816528 
	C289.862091,727.818054 292.341034,723.303711 292.582458,717.824158 
	C292.764221,713.698181 292.737976,709.583557 291.888092,705.415833 
	C290.536957,698.789917 295.958679,694.387817 302.237122,696.853760 
	C311.860352,700.633362 317.706024,708.533691 323.372009,716.658142 
	C326.265594,720.807190 327.428680,725.724609 329.814880,730.006775 
	C332.184875,730.474609 333.159393,728.534241 334.616455,727.594177 
	C339.077423,724.715881 341.888611,725.224182 344.383087,729.997620 
	C351.836426,744.260193 354.546814,758.754944 345.904144,773.624878 
	C345.433533,774.434631 345.309448,775.445740 345.086609,776.162109 
	C345.917938,777.458008 346.944305,777.466858 347.936707,777.322266 
	C353.737976,776.477356 359.577026,776.712524 365.405090,776.672852 
	C374.168243,776.613159 377.527039,773.132690 377.666260,764.166504 
	C377.839600,753.000427 377.270966,741.864136 376.762451,730.716309 
	C376.436371,723.567383 376.742126,716.389282 376.779633,709.224365 
	C376.838837,697.913757 369.976471,690.888123 358.751282,690.296204 
	C349.962891,689.832764 341.190704,688.995972 332.429260,688.141235 
	C330.604126,687.963135 327.903107,688.022095 327.687775,685.461975 
	C327.476227,682.946350 328.987549,681.003296 331.705811,680.521851 
	C345.405548,678.095093 359.308380,676.447327 372.609680,681.392700 
	C382.764252,685.168091 389.116455,693.458374 390.231384,704.378662 
	C392.449768,726.106201 391.676331,747.913757 390.222931,769.661255 
	C389.521790,780.153076 377.680298,790.252380 366.645355,790.350281 
	C352.659424,790.474426 338.671173,790.321777 324.684937,790.427429 
	C299.875824,790.614868 275.066864,790.858459 250.259186,791.180664 
	C241.005066,791.300903 232.767456,789.186890 226.639587,781.675293 
	C222.970581,777.177795 220.576996,772.279541 220.612137,766.239624 
	C220.725494,746.743164 220.803574,727.243958 220.582367,707.749329 
	C220.486984,699.344055 223.396164,692.535950 229.728012,686.681396 
M309.496216,753.726990 
	C319.511169,757.946228 322.015625,766.195862 321.203644,776.040710 
	C330.993408,777.144470 339.794922,758.642761 335.661713,746.050293 
	C334.065796,745.769897 332.878418,746.801697 331.635559,747.530518 
	C325.920685,750.880981 321.956451,749.834045 319.032501,744.000305 
	C317.313019,740.569702 316.468109,736.837952 315.617493,733.108215 
	C314.338409,727.499756 311.252930,722.967285 307.092041,718.801453 
	C306.607452,719.598755 306.293488,719.981689 306.125946,720.420471 
	C305.831543,721.191650 305.527618,721.981445 305.399506,722.790588 
	C303.831909,732.690735 297.759735,739.936829 291.176056,746.850098 
	C288.059418,750.122681 284.502441,750.146912 280.802948,747.755432 
	C279.854340,747.142212 279.124756,746.077332 277.675110,746.224426 
	C277.393494,746.523743 276.882080,746.819946 276.762970,747.230164 
	C274.042999,756.595886 279.082275,770.419861 287.108490,775.598083 
	C289.767395,777.313477 291.660431,776.990051 291.604980,773.369873 
	C291.459351,763.864136 298.789459,759.345947 304.574677,753.827576 
	C305.676422,752.776733 307.297333,752.603821 309.496216,753.726990 
z"/>
<path fill="#000000" opacity="1.000000" stroke="none" 
	d="
M297.959625,675.420227 
	C277.312958,675.382690 257.159790,675.310364 237.006821,675.344116 
	C233.305939,675.350281 229.686066,674.952942 226.141449,674.023560 
	C219.300293,672.229797 214.118835,665.766541 214.765884,660.037903 
	C215.433411,654.127930 221.533920,649.147888 228.724396,648.702332 
	C230.384048,648.599487 232.054535,648.663940 233.720032,648.663879 
	C274.526306,648.661316 315.332672,648.706360 356.138763,648.614075 
	C362.937256,648.598694 369.733185,647.957947 376.532715,647.662537 
	C380.256805,647.500732 383.822144,648.408813 387.166718,649.921448 
	C393.052917,652.583496 394.744049,655.643372 394.315704,662.160767 
	C393.977264,667.310669 390.750702,671.818542 385.531860,673.044373 
	C376.929932,675.064819 368.028198,675.936035 359.305908,675.021606 
	C343.782745,673.394226 328.391174,675.927856 312.934326,675.484314 
	C308.110657,675.345886 303.280426,675.436279 297.959625,675.420227 
M264.500092,660.366455 
	C257.167511,660.351624 249.834946,660.333923 242.502380,660.323120 
	C238.843338,660.317688 235.183319,660.277283 231.525696,660.350586 
	C230.144379,660.378296 228.738678,660.787048 228.690796,662.519226 
	C228.643738,664.221313 230.026611,664.734314 231.373734,664.940369 
	C233.504349,665.266296 235.659225,665.587524 237.807983,665.618164 
	C283.782501,666.272827 329.743866,664.974548 375.712097,664.653931 
	C376.211975,664.650452 376.712189,664.649353 377.211578,664.629456 
	C379.020782,664.557129 380.637695,664.163452 380.544403,661.876770 
	C380.465668,659.945312 379.076050,659.442993 377.428406,659.395020 
	C376.096130,659.356201 374.762054,659.382141 373.429596,659.347412 
	C348.105103,658.687378 322.820374,660.828247 297.496368,660.401245 
	C286.833771,660.221436 276.165710,660.368530 264.500092,660.366455 
z"/>
<path fill="#000000" opacity="1.000000" stroke="none" 
	d="
M289.460632,808.531616 
	C299.408813,799.188538 311.050781,799.066223 320.148956,806.812073 
	C330.060791,815.250854 327.867767,832.665710 316.446625,839.808472 
	C307.599304,845.341675 297.734680,844.296814 290.166626,836.604980 
	C282.876770,829.195984 281.894409,819.885742 287.500275,811.245056 
	C288.041321,810.411133 288.635193,809.611450 289.460632,808.531616 
M297.744324,818.484558 
	C296.675659,825.980530 301.956390,832.165833 307.893646,830.278748 
	C311.623138,829.093445 313.799561,826.498108 313.586609,822.465576 
	C313.384735,818.643127 312.260498,815.000305 308.180267,813.751770 
	C303.966705,812.462463 300.240753,813.406494 297.744324,818.484558 
z"/>
<path fill="#000000" opacity="1.000000" stroke="none" 
	d="
M369.336548,801.343506 
	C382.220642,802.820374 388.118317,815.224609 387.096741,822.813721 
	C385.016388,838.268127 372.107422,844.770935 362.758759,843.189880 
	C351.111450,841.220093 342.664490,829.579163 344.820587,818.343689 
	C346.556366,809.298462 357.692352,798.979248 369.336548,801.343506 
M369.856934,814.476440 
	C366.232208,812.751648 362.562042,812.534424 359.910217,815.849182 
	C357.736176,818.566772 356.063599,821.929443 358.304718,825.500671 
	C360.455017,828.927124 363.505707,831.258179 367.787933,830.550293 
	C371.228668,829.981445 373.710510,828.070679 374.829071,824.423035 
	C376.247894,819.795959 373.624146,817.273621 369.856934,814.476440 
z"/>
<path fill="#000000" opacity="1.000000" stroke="none" 
	d="
M250.054718,801.501709 
	C262.893982,804.949646 269.153198,816.614502 264.971069,828.623169 
	C260.901093,840.309692 247.570801,846.293335 236.645889,841.337646 
	C226.843597,836.891113 221.515274,824.987061 224.909714,815.117371 
	C228.333893,805.161133 239.450439,799.001648 250.054718,801.501709 
M237.787766,826.564758 
	C243.427048,832.210510 250.323441,831.646729 252.568390,825.272888 
	C254.038101,821.100098 253.129211,817.407288 249.419250,814.778320 
	C246.618546,812.793579 243.622482,811.470032 240.319016,813.917969 
	C237.026138,816.357971 235.800720,821.315002 237.787766,826.564758 
z"/>
<path fill="#000000" opacity="1.000000" stroke="none" 
	d="
M364.609070,631.685425 
	C366.633606,631.930542 368.761078,631.603149 368.561829,634.115784 
	C368.416931,635.943359 367.094055,636.915771 365.264343,637.371338 
	C360.712402,638.504517 356.052399,639.160339 351.426270,638.985168 
	C332.815491,638.280090 314.233795,636.709778 295.590424,637.006836 
	C283.788971,637.194824 271.989166,637.544128 260.192322,637.933533 
	C255.115112,638.101135 250.009705,639.007263 244.857452,637.066284 
	C245.734268,633.537476 248.132034,632.502441 250.795609,632.039917 
	C252.748138,631.700867 254.773209,631.687134 256.766022,631.686157 
	C292.564362,631.668152 328.362732,631.674377 364.609070,631.685425 
z"/>
<path fill="#000000" opacity="1.000000" stroke="none" 
	d="
M648.327148,231.132629 
	C646.625549,240.006256 644.623596,248.413620 643.471802,256.935883 
	C642.774048,262.098663 639.539612,261.312256 636.262085,261.414276 
	C632.766724,261.523071 630.613586,260.599304 630.600891,256.416626 
	C630.573853,247.482208 633.628052,239.136032 635.101562,230.494934 
	C636.465210,222.498108 638.088989,214.545853 639.538208,206.563065 
	C639.673767,205.816330 639.377686,204.991241 639.181885,203.376709 
	C632.813782,205.454926 626.548828,205.386200 620.285583,205.446930 
	C618.210876,205.467041 617.615356,207.034805 617.293640,208.819611 
	C614.798584,222.663528 611.406555,236.361847 610.350586,250.438995 
	C609.942139,255.884033 609.224060,256.329102 602.471130,256.481537 
	C597.718689,256.588837 596.008850,254.445236 596.702026,250.124268 
	C598.695557,237.696396 600.811523,225.288086 602.907532,212.876846 
	C603.317993,210.445847 603.854797,208.036179 604.436829,205.093658 
	C597.320435,203.287918 591.425415,199.329193 585.288574,195.353287 
	C582.183105,199.903305 582.370056,204.885925 581.505859,209.475769 
	C579.208435,221.678314 577.343628,233.962280 575.301819,246.213043 
	C574.309326,252.167740 569.241089,254.805328 563.888550,252.071259 
	C561.547363,250.875412 561.386597,248.557114 561.849365,246.410324 
	C565.690979,228.588333 567.132629,210.346390 571.312378,192.587494 
	C571.932983,189.950729 571.705933,187.300293 571.643677,184.639709 
	C571.585632,182.156448 571.512634,179.699951 572.707397,177.325302 
	C575.404358,171.964966 578.646545,171.040833 582.595825,175.549042 
	C590.810242,184.925858 601.111694,190.197464 613.236877,191.500534 
	C624.179016,192.676453 635.120667,191.628174 645.928711,189.303879 
	C649.167297,188.607407 652.832703,186.381622 655.791321,189.500671 
	C659.145203,193.036407 656.344849,196.618332 655.153992,200.157532 
	C652.179565,208.997650 651.717957,218.387833 649.314331,227.357452 
	C649.013672,228.479034 648.695190,229.595810 648.327148,231.132629 
z"/>
<path fill="#000000" opacity="1.000000" stroke="none" 
	d="
M600.717407,653.913208 
	C581.611755,662.741516 563.778259,661.493286 546.749634,649.361145 
	C538.520813,643.498413 535.115967,635.115173 534.888489,625.772522 
	C534.645752,615.802063 533.297668,605.886108 533.652649,595.904297 
	C533.705811,594.408936 533.618164,592.887268 533.866028,591.423523 
	C535.528137,581.605469 536.641235,581.286682 546.721130,582.397156 
	C566.598511,584.586792 586.552856,584.108398 606.487305,582.885376 
	C606.652832,582.875244 606.816284,582.835266 606.981445,582.815002 
	C618.713196,581.375977 620.226868,582.799988 620.399292,594.474609 
	C620.568909,605.959839 620.014648,617.390320 618.259888,628.734802 
	C616.551147,639.781250 610.537842,647.986328 600.717407,653.913208 
M594.967285,641.537170 
	C601.628479,638.003601 604.164490,631.775635 605.524658,624.934998 
	C607.055359,617.236694 606.541443,609.393555 606.780762,601.604004 
	C606.869568,598.712830 605.924744,597.332825 602.819519,597.343262 
	C585.526367,597.401428 568.232727,597.368469 550.939514,597.302551 
	C548.764221,597.294312 547.330811,597.807739 547.392700,600.278564 
	C547.612427,609.055908 546.751648,617.891174 548.644897,626.580383 
	C549.984619,632.729309 553.139282,637.878235 558.859375,640.596924 
	C570.398804,646.081482 582.269409,647.686096 594.967285,641.537170 
z"/>
<path fill="#000000" opacity="1.000000" stroke="none" 
	d="
M301.131866,416.430939 
	C300.566589,412.870026 301.230652,410.079865 304.271759,408.446442 
	C307.440582,406.744507 310.357819,408.155457 312.395691,410.294830 
	C321.313446,419.656494 330.094482,429.155029 338.690155,438.813080 
	C341.489380,441.958252 340.964294,447.437225 338.171417,449.729065 
	C334.468445,452.767670 331.347443,451.091522 328.627960,448.155090 
	C320.178192,439.031342 311.796722,429.844391 303.367065,420.701904 
	C302.318970,419.565186 301.687561,418.254761 301.131866,416.430939 
z"/>
<path fill="#000000" opacity="1.000000" stroke="none" 
	d="
M312.683899,436.318268 
	C316.767395,440.905640 321.516907,444.426880 324.619751,449.445740 
	C326.500397,452.487671 327.468445,455.550293 324.569855,458.511688 
	C321.712250,461.431274 318.857880,459.972931 315.962158,458.416168 
	C312.142303,456.362549 310.188934,452.552032 307.336090,449.588959 
	C302.033508,444.081482 296.545837,438.752502 291.221802,433.265167 
	C289.622620,431.616943 287.930145,429.872223 287.746674,427.384674 
	C287.542603,424.618591 288.862915,422.351044 291.203766,421.224518 
	C293.716125,420.015472 296.475586,420.323853 298.616425,422.403412 
	C303.265411,426.919464 307.834961,431.517303 312.683899,436.318268 
z"/>
<path fill="#000000" opacity="1.000000" stroke="none" 
	d="
M328.432556,419.557800 
	C325.334351,416.528351 322.504272,413.718536 319.620270,410.965118 
	C317.664520,409.097931 316.033112,406.956879 315.129059,404.456024 
	C314.190674,401.860229 314.246399,399.219879 316.589050,397.140991 
	C318.915405,395.076538 321.433777,395.263977 323.977814,396.552246 
	C324.996979,397.068329 326.079895,397.709412 326.772705,398.580688 
	C334.111084,407.809326 342.128967,416.422211 350.178925,425.023651 
	C353.436249,428.504089 353.060181,432.611176 349.823059,435.113953 
	C346.402283,437.758698 343.323212,436.578888 340.572205,433.808899 
	C339.870728,433.102600 339.181000,432.379639 338.541565,431.617615 
	C335.243622,427.687286 331.963837,423.741760 328.432556,419.557800 
z"/>
</svg>