<svg version="1.1" id="Layer_1" xmlns="http://www.w3.org/2000/svg" xmlns:xlink="http://www.w3.org/1999/xlink" x="0px" y="0px"
	 width="100%" viewBox="0 0 1024 1024" enable-background="new 0 0 1024 1024" xml:space="preserve">
<path fill="#000000" opacity="1.000000" stroke="none" 
	d="
M646.930908,111.839943 
	C672.576416,95.539871 699.632263,83.494492 729.128906,77.343109 
	C740.822510,74.904465 752.482117,73.983200 763.524780,80.111893 
	C770.987488,84.253716 773.887024,91.111229 774.381836,99.136284 
	C775.311462,114.214775 769.221375,127.104218 760.989075,139.083801 
	C748.299438,157.549652 732.309814,172.790619 713.501709,184.860519 
	C700.893188,192.951889 686.889221,198.510895 673.466187,205.116714 
	C672.128174,205.775177 670.782776,206.419418 669.456970,207.101761 
	C666.837646,208.449890 666.696655,209.976868 668.144775,212.687347 
	C675.032898,225.580933 681.456909,238.633224 683.453369,253.453445 
	C685.946960,271.964386 685.035400,290.031097 679.573242,308.034637 
	C673.608215,327.695526 663.147522,344.282074 648.223999,358.207855 
	C647.011230,359.339539 645.679199,360.343353 644.163696,361.605652 
	C669.157654,407.588348 689.997681,454.673737 699.702576,506.075531 
	C700.186157,506.045166 700.669739,506.014801 701.153320,505.984436 
	C703.948792,499.914856 706.734924,493.840912 709.544067,487.777649 
	C710.812134,485.040619 712.337708,482.478699 714.623047,480.431976 
	C716.714294,478.559174 719.011292,478.048706 721.487061,479.488068 
	C724.384155,481.172363 722.816467,483.453857 722.199585,485.635498 
	C719.896790,493.779297 712.607666,498.749359 709.180908,506.183929 
	C707.890137,508.984253 705.745605,511.496338 706.786438,515.798584 
	C710.571411,512.162659 713.878479,508.805725 717.378906,505.664154 
	C723.074036,500.552795 728.751404,495.482025 736.758545,494.033295 
	C745.855164,492.387360 751.391541,493.613556 754.548706,499.246033 
	C758.208008,505.774506 759.521301,517.986755 750.733887,523.406311 
	C747.475220,525.416077 745.463928,529.595520 740.908752,529.379944 
	C738.267395,524.882507 740.163696,521.366821 742.801331,517.946472 
	C745.236938,514.787964 746.436462,511.312775 745.704346,507.227722 
	C745.202942,504.429749 743.748352,503.131866 740.937256,503.300171 
	C740.105774,503.349945 739.234619,503.227478 738.445984,503.431854 
	C725.545959,506.775360 718.104614,516.706604 709.300781,526.550049 
	C718.113708,528.344727 720.595459,519.204773 727.562988,518.931824 
	C724.198364,526.358093 717.361572,528.834045 710.562439,531.113159 
	C711.713074,534.504150 714.075806,533.577087 715.846497,533.596252 
	C725.678040,533.702759 735.512756,533.549011 745.343201,533.697937 
	C753.945190,533.828247 760.979126,540.120911 762.272034,548.505798 
	C763.169128,554.323425 760.636230,558.459351 755.045593,560.458496 
	C742.093018,565.089905 729.632629,564.754700 717.837524,556.969482 
	C716.488037,556.078857 715.114868,555.009399 712.562561,555.334351 
	C713.295410,560.455261 713.781250,565.611084 714.862122,570.638977 
	C715.380493,573.050537 718.035522,572.760742 719.989441,572.605225 
	C733.386719,571.538391 743.686951,577.716858 752.959106,586.458191 
	C762.586487,595.534546 765.281067,607.399414 766.357788,619.849548 
	C767.298828,630.731140 764.398804,640.282776 755.864136,647.671875 
	C754.607056,648.760193 753.326416,650.105896 753.349365,651.851318 
	C753.459229,660.186707 747.790771,664.792908 741.959656,668.945618 
	C732.521790,675.666809 721.680420,677.546814 710.318604,676.462830 
	C706.736511,676.121155 704.524475,676.922485 702.730286,680.367920 
	C699.198853,687.149292 695.435913,693.855469 690.672852,699.892090 
	C685.230469,706.789612 684.397522,715.029907 683.381531,723.310852 
	C680.707642,745.104065 676.713013,766.605957 668.363831,787.069519 
	C664.732971,795.968628 659.941223,804.342590 652.551392,810.434143 
	C638.947327,821.648254 620.070679,819.164795 610.044983,802.933777 
	C602.309265,790.410095 598.832458,776.429810 595.682312,762.310608 
	C593.661377,753.252747 591.624329,744.198425 589.627869,735.135132 
	C589.085144,732.671265 588.038147,730.687683 585.259460,730.398621 
	C580.276001,729.880066 575.289062,730.099731 570.321838,730.645508 
	C566.634338,731.050659 565.092468,733.430298 564.270142,736.881226 
	C560.961914,750.764038 558.659668,764.881104 554.439697,778.553467 
	C551.495056,788.093933 548.780334,797.598694 542.502441,805.786133 
	C532.388062,818.976990 506.875366,824.786316 494.395996,801.435364 
	C484.006714,781.995239 479.212585,760.811401 475.718323,739.289368 
	C472.878571,721.798584 470.419708,704.245483 468.939331,686.581543 
	C468.674408,683.420288 467.197357,682.374390 464.509705,681.643860 
	C459.330902,680.236267 454.730927,677.425842 450.138397,674.794373 
	C445.714142,672.259277 443.642120,668.283142 443.547943,662.797302 
	C443.204926,642.813843 445.089081,623.026550 447.491760,603.228455 
	C449.268219,588.590149 450.273010,573.859192 451.701416,559.177246 
	C453.385315,541.869019 455.152344,524.575134 457.397095,507.321014 
	C459.772736,489.060486 462.336731,470.875183 467.390320,453.123322 
	C468.342072,449.780090 467.374390,447.666412 463.805206,446.221313 
	C453.494537,442.046844 443.046600,438.034302 434.356201,430.743896 
	C432.955750,429.569031 431.475159,428.453613 430.252106,427.109985 
	C426.146515,422.599640 421.441223,419.517639 415.378265,417.731110 
	C404.175781,414.430115 395.577667,406.449707 386.254486,399.819885 
	C381.340118,396.325195 376.553955,392.859192 375.862549,385.910065 
	C371.203400,387.547455 368.562103,390.828949 365.587372,393.555450 
	C346.827087,410.750122 325.606323,423.162750 300.288116,427.931335 
	C291.846741,429.521210 283.415527,429.950317 275.059052,428.106903 
	C266.561584,426.232330 258.770905,422.948456 255.536423,413.736206 
	C246.295532,416.637024 237.452103,417.253845 228.478973,415.375366 
	C217.749435,413.129150 209.474503,406.906891 202.330444,399.007446 
	C195.518845,391.475586 189.772934,383.111145 183.825195,374.892883 
	C176.894669,365.316620 167.506638,359.931000 155.351639,360.349670 
	C152.638184,360.443146 150.080612,359.759491 147.464890,359.323853 
	C143.637070,358.686310 140.280746,357.135712 139.057144,353.212036 
	C137.864349,349.387177 139.236267,345.763824 142.019028,343.166779 
	C152.582184,333.308441 164.801315,329.210785 179.115952,333.388458 
	C191.515152,337.007141 200.306030,345.466064 208.177826,355.147736 
	C213.100937,361.202789 217.933609,367.336426 223.015427,373.255707 
	C227.074402,377.983551 231.673462,378.775513 236.797531,376.080811 
	C237.231674,374.311615 235.921906,373.345795 234.909393,372.315277 
	C227.388519,364.660614 225.319687,355.530640 227.472946,345.227783 
	C228.266479,341.430878 227.480637,338.875732 223.962662,336.099060 
	C216.727798,330.388733 216.771622,322.018402 218.399139,313.715454 
	C218.872955,311.298309 219.863480,308.957397 220.824432,306.668579 
	C221.616394,304.782318 221.434723,303.106781 220.388596,301.463623 
	C215.781540,294.227600 216.833969,286.733978 220.026093,279.533142 
	C222.566437,273.802582 225.772339,268.305420 230.570557,264.011505 
	C232.064240,262.674835 232.735413,261.369293 231.883667,259.221191 
	C227.762497,248.827637 232.160034,238.767822 242.721237,234.890793 
	C251.076950,231.823380 256.612915,231.362518 264.456665,240.120911 
	C265.868134,241.696976 267.292572,243.053314 269.550781,242.555603 
	C282.254456,239.755539 293.928558,242.980957 305.132172,248.693558 
	C308.745697,250.536057 310.875702,250.473572 314.360992,247.157379 
	C325.622589,236.442245 339.620148,233.066040 354.940186,235.064926 
	C364.406311,236.300018 372.992065,239.660660 379.975311,246.318146 
	C383.319550,249.506424 386.716522,252.816513 389.275513,256.619293 
	C398.143127,269.796844 410.600555,279.398407 421.911682,290.141083 
	C424.012085,292.135925 424.682007,292.154938 428.747955,292.995697 
	C430.332916,291.545654 429.635101,289.590485 429.638550,287.877289 
	C429.697266,258.579193 437.678955,231.840866 455.414612,208.300766 
	C460.209717,201.936325 465.028625,195.547180 470.832703,190.033035 
	C473.593048,187.410599 475.307556,184.339340 476.125305,180.658768 
	C480.881256,159.253662 490.558716,140.114197 502.454498,121.838478 
	C514.964844,102.618599 529.168152,84.874611 546.604187,70.003014 
	C559.305542,59.169827 573.116394,49.557312 589.918274,46.345573 
	C599.752380,44.465744 609.932861,44.023502 617.536133,53.065918 
	C622.701172,59.208576 622.848633,66.504654 622.609741,73.832153 
	C622.092163,89.703865 614.767517,103.239784 607.137939,116.526291 
	C600.252136,128.517426 592.478210,139.943649 582.779602,149.927277 
	C582.368530,150.350418 582.207214,151.016174 581.768677,151.889008 
	C585.505493,153.007065 588.933777,154.102463 592.242981,155.593323 
	C595.384033,157.008408 597.716675,154.525452 599.443542,152.422470 
	C612.795288,136.163071 629.384277,123.728485 646.930908,111.839943 
M595.548218,379.570099 
	C597.339539,377.429993 599.891357,376.591095 602.344360,375.565430 
	C626.231995,365.577362 645.391968,349.923859 658.809021,327.675751 
	C672.511230,304.954681 676.230957,280.432068 672.057190,254.297684 
	C669.998657,241.407349 664.472534,229.955231 659.765503,218.087189 
	C658.217346,214.183853 656.249329,213.062714 652.299072,214.349869 
	C649.993042,215.101273 647.186401,216.755325 645.438232,213.046249 
	C643.812561,209.596939 645.927307,207.673294 648.159668,205.878677 
	C650.355164,204.113815 652.608276,202.306854 655.104187,201.051178 
	C662.239929,197.461182 669.336243,193.691559 676.761047,190.794968 
	C706.926941,179.026611 730.994080,159.443558 750.412903,133.886520 
	C753.456238,129.881195 756.874329,125.732346 756.812317,120.197037 
	C749.848877,115.191208 742.702332,116.072701 735.440979,119.061737 
	C711.049927,129.101959 691.534607,145.856232 673.594482,164.580902 
	C665.782654,172.734314 658.472290,181.425064 652.518066,191.144699 
	C651.332947,193.079285 649.429443,194.618927 647.696838,196.160492 
	C645.877319,197.779388 643.752869,197.583954 641.614563,196.682373 
	C639.402222,195.749588 639.737976,193.819336 639.659119,192.008560 
	C639.510864,188.602615 641.323120,185.957611 643.080750,183.341003 
	C651.838501,170.303085 662.207703,158.689362 673.695923,147.972549 
	C689.735901,133.009567 706.975464,119.809029 726.926514,110.485626 
	C738.394470,105.126488 750.033630,101.938492 761.405884,110.849251 
	C766.626343,102.689926 763.206482,92.579491 754.276550,89.206818 
	C743.994324,85.323433 733.809509,87.770157 723.907593,90.323616 
	C703.532898,95.577728 684.100098,103.348366 665.754822,113.802834 
	C638.715454,129.211868 614.098450,147.343399 596.838440,173.914886 
	C595.285645,176.305450 593.193481,177.701599 590.692871,178.759933 
	C588.497742,179.688950 586.810486,178.652054 585.199158,177.416245 
	C583.592896,176.184387 584.113342,174.604996 584.336182,172.881348 
	C584.707581,170.007996 587.377380,168.224655 587.889282,164.964828 
	C572.524048,161.637955 557.259460,160.587463 542.263428,164.171051 
	C513.069397,171.147491 487.695648,185.055756 468.141785,208.383850 
	C452.392090,227.173538 443.456635,248.856125 441.476776,273.294617 
	C439.589386,296.591583 445.337128,317.989746 457.408234,337.978912 
	C468.606506,356.522736 484.246918,369.799805 504.200867,377.503937 
	C526.485229,386.107880 549.621155,388.158051 573.198181,383.248474 
	C578.587158,382.126282 580.006836,383.626770 579.024048,388.909668 
	C578.721680,390.535217 578.459839,392.190552 578.416870,393.838440 
	C578.157043,403.801758 578.204041,403.615234 588.311462,404.911652 
	C591.557434,405.327972 592.418823,404.445770 592.692932,401.467651 
	C593.344971,394.381714 594.255981,387.319611 595.548218,379.570099 
M457.156250,620.608215 
	C455.903107,633.835693 454.634125,647.061646 453.416656,660.292419 
	C453.264008,661.951294 453.205536,663.786743 454.987946,664.717285 
	C459.065979,666.846497 463.009460,669.309509 467.790161,670.691711 
	C469.571045,667.209839 470.608612,661.868958 475.560638,664.225952 
	C479.758057,666.223755 477.166779,670.028381 475.193848,672.891235 
	C480.778198,677.726135 487.512817,677.939758 494.097321,679.805481 
	C494.919189,675.831726 494.583252,671.192627 499.969910,671.807983 
	C504.238678,672.295654 506.347900,674.906921 505.079224,679.556641 
	C524.393005,682.856934 543.285950,685.229858 562.765381,683.954895 
	C580.076843,682.821716 597.039856,680.484314 613.845276,676.511108 
	C617.817261,675.571960 620.725220,673.716370 620.717468,668.755981 
	C620.651489,626.456482 620.951172,584.155334 619.675903,541.864929 
	C619.594299,539.158386 618.539062,537.540588 616.147278,536.450378 
	C608.475647,532.953491 603.038940,527.018921 598.296143,520.225403 
	C588.810120,506.638031 587.333374,491.147339 586.596313,475.683258 
	C588.593018,474.363861 590.130371,474.685120 591.594299,474.664703 
	C599.364502,474.556274 599.864990,475.152405 599.943970,482.718079 
	C600.016479,489.674103 600.307617,496.603760 601.673645,503.488770 
	C604.284424,516.648010 612.766052,525.276855 625.789856,527.848145 
	C631.835327,529.041687 637.578979,526.916443 643.477600,526.718384 
	C658.509277,526.213501 672.960876,522.310852 687.595154,519.457703 
	C691.467346,518.702820 692.306030,516.432068 691.299988,512.929626 
	C686.306458,495.546112 681.808411,478.004486 676.275574,460.795105 
	C666.500061,430.389191 652.299866,401.828857 638.525635,373.108368 
	C636.847107,369.608490 635.044556,369.400146 631.951904,371.429291 
	C624.862732,376.080688 617.703186,380.668884 609.612000,383.476532 
	C606.589294,384.525391 605.787415,386.964478 605.497559,389.730225 
	C604.997131,394.505524 604.908264,399.309814 603.597534,404.007263 
	C602.772461,406.964081 603.967102,408.871155 607.452576,408.652771 
	C610.160950,408.483093 612.808899,408.767578 614.964478,410.675354 
	C616.372009,411.921051 617.668396,413.350464 617.069702,415.408691 
	C616.535950,417.243378 614.776550,417.972473 613.169250,418.096619 
	C610.199036,418.325989 607.168213,418.359344 604.209412,418.040344 
	C593.995239,416.939087 583.829468,415.258423 573.593323,414.520355 
	C555.670898,413.228027 538.101013,409.789978 520.655945,405.914124 
	C501.407410,401.637634 482.555664,395.654785 463.194305,391.761902 
	C455.764954,390.268127 448.409973,389.658081 441.150574,392.617401 
	C434.600098,395.287720 431.434906,400.103149 432.428223,407.137421 
	C433.446259,414.346863 438.091675,419.598480 443.727386,423.480103 
	C457.496185,432.963409 472.876129,439.371704 488.315704,445.587738 
	C506.218628,452.795532 524.573669,458.689575 543.026978,464.266785 
	C554.601013,467.764801 566.875610,468.354126 578.331177,472.450165 
	C580.130188,473.093414 582.209412,473.298401 582.853027,475.956146 
	C578.583740,477.707581 574.598022,480.091766 570.109131,480.122192 
	C565.824097,480.151276 563.856323,481.447357 564.324768,485.885742 
	C564.511414,487.653564 564.011902,489.272247 561.729065,489.360382 
	C559.746887,489.436920 558.041931,489.064056 557.587402,486.724487 
	C557.333679,485.418457 557.004211,484.124268 556.812073,482.809662 
	C556.184814,478.518097 553.764465,476.924744 549.486267,477.426727 
	C532.380371,479.434021 515.267578,478.399872 498.162964,477.312042 
	C493.975494,477.045746 491.212555,475.394073 491.611755,470.496429 
	C491.854584,467.517487 491.616943,464.501221 491.646637,461.502258 
	C491.662628,459.890503 491.322540,458.485840 489.713287,457.781738 
	C486.409271,456.336182 483.083130,454.941254 479.988464,453.620422 
	C478.237305,454.447418 478.108032,455.921326 477.755920,457.134338 
	C473.444275,471.989044 470.837494,487.146088 469.353912,502.545319 
	C468.101349,515.546936 466.247406,528.489380 464.816010,541.475342 
	C463.252533,555.659668 461.790131,569.856445 460.430908,584.061829 
	C459.293488,595.949097 458.368347,607.856628 457.156250,620.608215 
M694.484985,670.050903 
	C702.571106,648.675781 706.492554,626.620422 705.736389,603.718689 
	C705.566162,598.562683 705.206055,593.449890 704.677795,588.333252 
	C703.419312,576.142822 702.161682,563.961365 699.845276,551.899536 
	C699.165466,548.359497 697.705322,548.450500 695.069397,549.386414 
	C675.812134,556.224243 655.682800,558.383789 635.525940,560.347473 
	C631.045288,560.783997 629.467712,562.420044 630.642822,566.847229 
	C631.437073,569.839539 631.412109,572.759766 631.414062,575.735046 
	C631.425964,594.224731 631.564941,612.716309 631.343994,631.203491 
	C631.180908,644.847046 631.693726,658.480225 630.762207,672.151672 
	C630.256592,679.573303 626.761719,682.978088 620.682495,685.142822 
	C602.317261,691.682434 583.068604,693.142517 563.873413,694.207275 
	C552.626404,694.831177 541.302856,694.510925 529.973816,693.574829 
	C516.052185,692.424500 502.293396,690.467834 488.606567,687.907471 
	C480.251007,686.344482 480.194824,684.669617 480.454041,695.329346 
	C480.466064,695.823242 480.596252,696.314575 480.675415,696.806519 
	C482.907776,710.678650 484.981537,724.578674 487.412140,738.416016 
	C490.771545,757.540771 494.993011,776.438049 503.317749,794.172424 
	C506.428253,800.798889 510.854431,805.891785 518.547546,806.111084 
	C526.317932,806.332703 531.343262,801.773499 535.028503,795.150269 
	C541.505432,783.509583 544.685059,770.792603 547.588196,757.999512 
	C549.754150,748.455017 551.498413,738.831970 555.144348,729.675110 
	C556.799133,725.518921 559.673035,723.341187 563.977051,722.618835 
	C571.081543,721.426575 578.212158,720.532898 585.461609,720.673523 
	C585.924133,715.703430 581.199951,712.536194 581.962097,706.444702 
	C584.231018,710.438599 585.867371,713.319153 588.221619,717.463318 
	C587.476318,711.288757 583.818909,707.651611 583.147095,702.643921 
	C587.483276,702.599670 589.565063,705.381165 590.774170,708.309204 
	C594.197693,716.599182 597.643616,724.933167 600.214294,733.509521 
	C603.957703,745.998230 606.609924,758.814453 610.365173,771.299133 
	C613.080566,780.327087 615.128845,789.710938 620.795593,797.632385 
	C627.603149,807.148499 638.146423,808.243103 646.484741,800.287598 
	C650.023621,796.911255 652.906189,793.099854 655.029846,788.703064 
	C665.730469,766.549011 670.177246,742.822021 672.655457,718.601562 
	C673.662781,708.756775 675.374207,699.118591 681.823181,691.130310 
	C686.868347,684.880798 691.167114,678.218994 694.484985,670.050903 
M586.079407,127.608490 
	C592.025330,118.769920 597.889771,109.860275 602.609253,100.303665 
	C607.452087,90.497276 612.674194,80.812363 611.742676,69.159927 
	C611.081787,60.891853 605.391418,55.358757 597.259277,56.516289 
	C589.463989,57.625866 582.125183,60.180622 575.297058,64.249359 
	C552.656433,77.740433 534.350098,95.771797 518.778687,116.908379 
	C505.850403,134.457260 495.795258,153.330811 489.583801,174.543869 
	C508.227753,161.536697 528.845276,153.739807 550.913025,152.017105 
	C564.439514,150.961151 573.540039,145.625656 580.640381,135.008636 
	C582.208618,132.663712 583.975098,130.451340 586.079407,127.608490 
M254.165253,365.612000 
	C263.125427,365.636749 272.312531,359.900787 281.007080,366.669281 
	C280.350891,361.621918 280.333923,361.585388 285.440552,359.216187 
	C288.155853,357.956421 290.948273,356.863800 293.694824,355.670288 
	C315.343811,346.262726 330.542450,330.052399 342.048187,309.910583 
	C345.971100,303.043182 344.671356,296.930908 339.873688,291.088928 
	C335.264374,285.476318 333.830963,285.312012 329.185699,290.923462 
	C325.296783,295.621246 320.181885,297.198395 314.175415,298.023285 
	C314.307587,293.855835 317.669006,292.553406 319.607056,290.324799 
	C325.129791,283.974152 325.226257,278.178558 319.140442,272.410980 
	C315.587006,269.043304 311.488342,266.252136 306.764801,263.930115 
	C305.345459,267.355103 304.317322,270.533142 302.778046,273.440552 
	C290.091553,297.403137 258.572693,313.005371 233.150085,308.672455 
	C231.188980,308.338165 229.674866,308.746368 229.121552,310.583679 
	C227.516815,315.912415 226.609528,321.414948 230.059341,326.316010 
	C233.374191,331.025330 238.685654,332.119476 243.889969,331.423279 
	C267.632507,328.247253 289.589508,321.117310 305.705780,301.870514 
	C306.788177,300.577850 308.186157,299.315918 310.008026,300.257568 
	C312.096375,301.336945 313.092255,303.401642 312.963867,305.654846 
	C312.770111,309.054291 311.463257,312.003479 308.977295,314.538971 
	C291.476440,332.388519 269.535889,339.720093 245.274612,341.314728 
	C237.723206,341.811096 237.410629,341.407837 237.341904,348.646515 
	C237.203506,363.221375 240.796585,366.926025 254.165253,365.612000 
M409.962433,403.480011 
	C413.237732,405.202972 416.211365,407.665344 420.690613,408.013885 
	C420.690613,405.861359 420.619629,404.050995 420.702301,402.247681 
	C421.179504,391.839691 431.125427,381.521057 441.476746,380.688629 
	C451.104034,379.914398 460.706207,380.352509 470.216949,381.889862 
	C473.026978,382.344055 474.894653,382.677429 476.002136,379.335968 
	C476.992981,376.346405 476.822205,374.477844 473.824860,372.734528 
	C470.695709,370.914612 467.904938,368.470947 465.112335,366.126007 
	C462.290833,363.756744 459.435852,361.939758 455.653564,361.031036 
	C444.006744,358.232819 432.428284,354.844452 422.668884,347.548950 
	C410.450653,338.415405 398.886353,328.464661 388.074005,317.733246 
	C380.579590,322.006104 380.055450,323.840393 385.173889,329.901184 
	C392.367920,338.419708 393.404175,347.986206 390.892853,358.444214 
	C388.773193,367.271332 384.115692,374.822906 379.104950,382.412903 
	C390.466705,387.858704 398.274811,397.828339 409.962433,403.480011 
M317.256561,388.700012 
	C321.655762,386.360260 326.191223,384.242615 330.430054,381.641541 
	C347.005005,371.470703 361.125336,358.950043 369.195404,340.668274 
	C372.888214,332.302765 371.366272,325.153503 364.285919,319.497437 
	C360.545258,316.509277 356.784790,313.545929 352.645813,310.264160 
	C345.611755,328.649567 332.258728,341.961578 317.386322,353.936401 
	C302.240997,366.131012 283.602966,369.995850 264.938110,374.787048 
	C272.333923,379.865509 277.305908,385.952637 277.266785,394.651703 
	C277.244232,399.669708 279.153442,399.817230 283.349304,399.185028 
	C294.964325,397.434845 305.828491,393.490601 317.256561,388.700012 
M750.396851,639.911255 
	C752.986938,636.395325 754.717468,632.578674 755.782776,628.263062 
	C757.587341,620.953186 753.738892,614.669373 752.838623,607.874451 
	C751.267090,596.013306 732.955994,582.994873 720.969238,583.312317 
	C717.162170,583.413147 715.826538,583.783203 716.086121,588.647827 
	C717.059326,606.887268 717.457825,625.175293 713.826416,643.293518 
	C712.376465,650.527710 710.343140,657.630676 708.649902,664.520508 
	C713.748352,667.755676 718.563354,666.472656 723.229492,665.556824 
	C730.073303,664.213623 736.981262,662.827087 742.244751,657.605896 
	C744.796936,655.074219 745.814697,652.739685 741.807800,650.545166 
	C740.393921,649.770874 738.985657,648.740967 738.795837,646.571167 
	C742.095642,643.894958 746.765320,643.490417 750.396851,639.911255 
M383.522919,284.794159 
	C383.235046,283.163849 382.800812,281.544159 382.681946,279.901611 
	C381.444489,262.804626 359.730988,240.306870 340.246246,245.275436 
	C333.735596,246.935654 328.131897,249.821518 323.322174,254.288345 
	C321.008423,256.437134 320.224396,259.179443 323.279785,261.537720 
	C326.361298,263.916168 327.831573,260.900421 329.387085,259.294983 
	C335.307220,253.184769 342.788452,251.686859 350.787628,251.864944 
	C352.796509,251.909637 355.454376,252.213364 355.698639,255.087006 
	C355.925873,257.760925 353.812225,258.716278 351.672699,259.439545 
	C347.578003,260.823730 343.379761,262.007599 339.718811,264.378662 
	C337.549774,265.783478 334.275177,267.416412 335.724182,270.387207 
	C337.510468,274.049652 337.412231,279.452087 342.670319,280.643066 
	C349.928772,282.287170 355.335327,285.516174 356.080078,293.767456 
	C356.271881,295.892487 357.068573,297.957275 357.359070,300.080963 
	C357.563538,301.575745 358.250549,302.454926 359.531830,303.143524 
	C369.596802,308.552734 378.174896,305.479431 381.910736,294.880249 
	C382.944061,291.948547 383.791931,288.860596 383.522919,284.794159 
M255.109573,402.619965 
	C257.654663,401.772736 259.954956,400.530121 262.146423,398.937195 
	C265.311310,396.636688 268.051880,394.505554 265.572754,389.992035 
	C262.184479,383.823334 258.529846,381.648102 253.406097,383.320221 
	C249.456360,384.609222 245.604324,386.206573 241.633331,387.419617 
	C232.663406,390.159698 224.743561,388.614075 217.769791,381.917847 
	C210.420517,374.861145 204.453644,366.637146 197.653580,359.133698 
	C184.287491,344.385071 174.831421,340.946381 157.716400,346.481628 
	C156.643555,346.828583 155.415085,347.079559 155.166031,348.498444 
	C155.843689,349.867981 157.116486,349.590454 158.232880,349.640442 
	C169.894501,350.162537 179.646500,354.554352 187.751526,363.139374 
	C193.739777,369.482269 198.581726,376.601685 203.542694,383.680603 
	C217.831757,404.069946 233.658615,410.024078 255.109573,402.619965 
M231.955078,277.520294 
	C230.811798,279.917297 229.376617,282.221710 228.581360,284.729126 
	C226.413498,291.564331 229.602295,296.994904 236.662231,298.398529 
	C239.386093,298.940063 242.280807,298.998413 245.064056,298.801575 
	C259.039520,297.813141 270.854309,291.431732 281.524689,283.010162 
	C287.072174,278.631836 292.359039,273.565735 294.256073,266.183105 
	C295.971893,259.505615 292.833344,254.229050 286.190369,253.528580 
	C281.747314,253.060104 277.194824,253.154877 272.731689,253.508011 
	C269.428528,253.769333 267.049286,255.293213 268.361053,259.489807 
	C270.980865,267.871002 269.667542,270.703003 261.661163,274.373657 
	C259.406769,275.407227 257.071075,276.367615 254.673920,276.965942 
	C247.883148,278.660919 245.556534,277.484497 242.339813,271.216370 
	C242.055405,270.662170 241.519852,270.236877 241.056656,269.700439 
	C236.985748,270.865387 234.615860,273.823517 231.955078,277.520294 
M444.819153,338.492340 
	C439.883026,329.459747 435.640167,320.138092 432.716644,310.234650 
	C432.112396,308.187775 431.023865,306.273285 430.061951,304.345978 
	C429.292877,302.805054 428.138641,301.727905 426.313965,301.373901 
	C422.083130,300.553101 418.930420,297.741852 415.551117,295.353271 
	C408.293640,290.223450 401.075409,285.043091 394.020538,278.472504 
	C393.303314,287.944946 393.735931,296.720337 391.736084,305.271149 
	C391.362061,306.870514 391.385468,308.598450 393.055939,309.759949 
	C405.869080,318.669159 417.575073,329.022949 430.133362,338.247681 
	C435.380524,342.102051 441.237488,345.333527 448.735199,346.263611 
	C447.346924,343.497437 446.254791,341.321381 444.819153,338.492340 
M371.054932,374.551422 
	C376.240845,367.342041 380.456909,359.717987 382.061493,350.808502 
	C382.553925,348.074463 382.263733,346.071533 379.751404,344.337128 
	C379.056335,345.149506 378.365448,345.680511 378.037689,346.381378 
	C372.949310,357.260986 365.333588,366.023254 356.499634,374.123016 
	C333.051178,395.622650 306.255280,408.555695 273.912140,408.381989 
	C271.270538,408.367798 267.790588,407.878021 267.255676,411.181091 
	C266.743500,414.343842 269.983856,415.737335 272.507263,417.003845 
	C273.230469,417.366821 274.092133,417.460175 274.895447,417.656219 
	C282.995239,419.632996 291.151855,419.063995 299.074890,417.184357 
	C327.193878,410.513580 350.858276,396.095154 371.054932,374.551422 
M692.263184,529.335876 
	C673.740173,533.937805 655.077454,537.729187 635.929443,538.345276 
	C631.506958,538.487549 630.377502,540.557251 630.275269,544.628479 
	C630.161255,549.168884 632.374451,549.758484 636.127930,549.698364 
	C655.727356,549.384277 674.502380,544.717529 693.123108,539.183960 
	C694.215759,538.859253 695.308350,538.280945 696.194702,537.565247 
	C698.418213,535.769775 697.761597,533.404175 697.141052,531.146179 
	C696.540344,528.960632 695.169617,528.165283 692.263184,529.335876 
M749.365356,543.106140 
	C738.586975,538.955872 727.843506,543.719788 716.935425,543.186462 
	C726.661804,548.322266 736.295410,553.247620 747.482361,553.694824 
	C750.378479,553.810608 753.019470,553.332336 753.683167,550.059814 
	C754.296326,547.036987 753.509216,544.402771 749.365356,543.106140 
M518.333130,393.969421 
	C532.435425,397.589111 546.765320,400.085419 561.102478,402.518860 
	C567.428589,403.592621 568.854675,401.433441 566.780212,394.174286 
	C560.057312,394.592377 553.325317,396.084198 546.517761,395.235382 
	C536.019043,393.926361 525.522034,392.563385 515.230286,390.024139 
	C513.595337,389.620789 512.085205,388.826385 510.934845,391.124481 
	C512.672058,393.248047 515.221924,393.261047 518.333130,393.969421 
M255.709213,259.025421 
	C257.233337,256.912476 257.945221,254.573700 257.584381,251.969894 
	C256.955078,247.428879 253.431931,244.073181 249.738266,244.458801 
	C245.813522,244.868530 239.982132,250.988342 240.530899,254.422729 
	C241.086838,257.901978 243.941833,259.543823 246.728699,261.103180 
	C249.975769,262.920013 252.782349,262.162994 255.709213,259.025421 
M522.546753,468.599670 
	C523.389404,468.336731 524.525208,469.148010 525.202698,467.823212 
	C517.632812,466.441223 509.941559,465.909790 503.044495,461.962677 
	C501.361176,467.180237 503.109283,468.935120 507.848816,468.687714 
	C512.475098,468.446167 517.122803,468.613831 522.546753,468.599670 
M490.130280,386.562866 
	C492.200287,386.137299 494.472443,387.945831 496.652740,386.088074 
	C495.664459,383.317993 493.110260,383.259308 491.135376,382.428589 
	C490.107727,381.996368 488.873566,381.681732 488.153259,383.070374 
	C487.323090,384.670807 487.544312,385.901093 490.130280,386.562866 
z"/>
<path fill="#000000" opacity="1.000000" stroke="none" 
	d="
M357.452271,688.373657 
	C352.707123,688.840576 348.055969,687.008301 344.074768,690.024597 
	C344.057465,692.861206 345.378693,695.066467 346.426025,697.267761 
	C352.319824,709.654785 356.417908,722.575195 358.688507,736.110168 
	C359.597748,741.530334 361.718964,746.596497 363.860596,751.663696 
	C369.582123,765.200684 371.267578,779.015808 367.255859,793.498962 
	C361.599152,813.920776 347.468567,825.580994 328.440460,832.473328 
	C309.826233,839.215881 290.460846,841.196838 270.811584,842.612732 
	C247.095627,844.321472 224.078720,841.312805 201.394485,835.258118 
	C183.591461,830.506409 167.821152,822.031616 158.834854,804.828979 
	C150.332535,788.552734 148.015076,771.457092 156.542999,754.609375 
	C161.620972,744.577454 163.552261,734.028687 165.869186,723.326477 
	C168.222382,712.456787 172.199158,702.011353 176.732254,691.812439 
	C179.363815,685.891663 182.156677,679.993713 184.149124,673.849426 
	C186.935165,665.257996 187.033752,657.240051 179.449249,650.119873 
	C172.111679,643.231567 173.464981,634.403992 181.355804,628.331482 
	C188.051041,623.179077 195.337631,619.409119 203.497437,617.253113 
	C205.709412,616.668640 207.847626,615.804932 209.921188,615.102722 
	C210.350327,612.739075 209.080902,611.401611 208.004761,609.921265 
	C191.966141,587.857910 176.529099,565.374207 161.744034,542.457886 
	C154.398727,531.072937 149.659073,518.457397 146.180313,505.370056 
	C145.534698,502.941101 146.526535,501.485687 148.478119,500.476135 
	C153.036285,498.118195 157.347839,495.277191 162.545471,494.250549 
	C168.430298,493.088196 172.679031,488.178497 178.787872,487.145996 
	C184.879333,486.116455 190.840485,484.813751 196.985001,486.602386 
	C199.978165,487.473694 202.511154,486.734283 205.412415,485.242035 
	C216.896667,479.335236 229.449249,478.560333 241.929184,479.980438 
	C252.704285,481.206543 263.465790,481.754150 274.108185,480.412567 
	C286.445251,478.857361 298.255188,480.517059 309.956482,483.831787 
	C314.013092,484.980927 317.960999,485.878876 322.178528,485.691284 
	C327.010437,485.476349 331.990082,485.246338 336.488159,487.112732 
	C345.366974,490.796844 354.265533,494.280884 363.535095,496.946686 
	C369.013306,498.522156 371.043030,502.825317 369.004852,509.100800 
	C367.247192,514.512573 368.911255,515.169495 373.756256,516.097412 
	C388.735199,518.966125 400.250641,531.131897 402.272827,545.171021 
	C404.592865,561.278015 396.918732,575.939209 382.457489,583.896118 
	C363.021790,594.590088 342.074554,599.715515 320.145996,601.270996 
	C316.337219,601.541199 314.581116,603.731689 312.924805,606.527588 
	C307.770813,615.227600 307.729156,615.345154 317.313873,618.045044 
	C324.888550,620.178711 332.094238,622.938354 338.652649,627.423157 
	C345.144867,631.862732 349.042664,637.228699 346.337280,645.918518 
	C351.241821,647.532349 356.237030,647.280396 360.738251,647.326904 
	C380.897583,647.535217 394.237366,658.255249 403.559937,674.545532 
	C416.401794,696.985474 425.684784,721.067444 433.804688,745.575928 
	C434.839203,748.698486 435.246948,752.013489 435.485046,755.361145 
	C436.039215,763.151733 433.337311,769.309204 426.290375,772.679565 
	C419.018707,776.157471 412.161957,774.334229 405.704651,769.717712 
	C399.114441,765.006165 395.690918,758.244812 392.968262,751.069336 
	C387.726044,737.253845 382.828918,723.307861 377.679779,709.456482 
	C375.703033,704.138977 373.289948,698.966675 369.545288,694.642517 
	C366.513580,691.141663 362.450104,689.215881 357.452271,688.373657 
M299.960541,829.373901 
	C309.267670,827.581665 318.339508,825.018860 327.205353,821.619934 
	C350.430969,812.715881 363.162567,789.336792 357.692505,764.989075 
	C354.971130,752.875977 348.943054,741.831970 346.736816,729.432556 
	C343.901703,713.498718 336.406982,699.031311 330.432953,684.096802 
	C328.699677,679.763733 326.778046,679.644714 322.995209,681.122986 
	C302.893188,688.978455 281.801453,691.160583 260.446198,691.211426 
	C254.685120,691.225159 248.930313,689.901978 243.156616,689.364380 
	C227.767685,687.931519 212.570236,685.583374 198.080719,679.935181 
	C195.360535,678.874817 193.630707,678.769226 192.045517,681.778442 
	C184.871506,695.397034 179.666733,709.796692 176.553772,724.760925 
	C174.513870,734.566956 172.427444,744.061951 167.804657,753.102173 
	C155.165253,777.819519 164.458450,805.817688 189.072906,818.455200 
	C207.526016,827.929382 227.612778,830.580933 247.871582,831.477112 
	C264.944183,832.232300 282.107880,832.301025 299.960541,829.373901 
M191.333405,565.223022 
	C203.243652,585.088440 218.370819,602.714600 230.907608,622.136108 
	C232.792053,625.055481 235.106171,626.677490 238.308395,627.434509 
	C253.302979,630.978943 268.283417,630.429443 283.239807,627.233337 
	C285.745026,626.697876 287.666229,625.348206 289.106781,623.010925 
	C300.698029,604.203796 313.969147,586.466919 324.741760,567.136230 
	C326.771851,563.493286 329.236053,560.180725 331.732483,556.842346 
	C336.810394,550.051941 341.508881,542.977783 346.900574,535.251221 
	C287.811951,553.808655 229.831085,554.426514 171.290192,535.770691 
	C177.024765,546.452271 184.243729,555.362793 191.333405,565.223022 
M249.122940,489.549194 
	C246.299332,489.406586 243.396149,489.635529 240.667114,489.051208 
	C232.685120,487.342194 224.930298,488.178162 217.878189,491.913757 
	C210.646942,495.744171 203.225616,495.676239 195.544342,495.038605 
	C190.691086,494.635681 185.930817,495.270203 181.427643,497.095367 
	C176.290451,499.177490 175.473541,503.492279 179.597305,507.021393 
	C182.020264,509.094971 184.303040,511.294250 186.069748,513.876953 
	C187.542114,516.029419 188.894760,516.057678 191.062500,515.141602 
	C197.257996,512.523376 203.089554,513.140747 208.192245,517.786499 
	C210.149857,519.568787 212.005844,519.866577 214.515015,518.695984 
	C221.638489,515.372681 228.983597,515.541138 235.514038,519.748474 
	C240.086227,522.694153 244.098877,522.438782 248.525208,520.375122 
	C257.565887,516.160095 266.335419,517.342285 274.820404,521.868103 
	C277.176483,523.124756 278.794067,522.972290 281.136841,521.616760 
	C288.529022,517.339661 296.332153,514.750977 304.822205,518.622192 
	C307.425659,519.809265 309.472198,519.245239 311.605774,517.376282 
	C314.557037,514.791077 318.418671,512.334961 322.046265,513.873108 
	C328.794464,516.734375 332.451996,513.491272 336.045685,508.791870 
	C336.841949,507.750610 337.895996,506.835602 338.994324,506.108734 
	C343.121643,503.377289 341.644958,501.102142 338.541138,498.863129 
	C332.504364,494.508270 325.696014,494.741333 318.888855,495.858185 
	C315.808258,496.363617 312.940796,496.610718 310.209015,494.997314 
	C297.669586,487.591522 283.901245,489.023895 270.365509,489.806335 
	C263.546234,490.200531 256.799530,490.693756 249.122940,489.549194 
M206.386292,650.046997 
	C222.574509,653.656067 238.891296,656.509583 255.518494,656.585388 
	C266.131134,656.633728 276.730347,656.846252 287.379181,655.834778 
	C302.240051,654.423096 316.406586,650.789734 330.185059,645.333740 
	C332.071259,644.586853 334.522583,643.922974 334.627197,641.178406 
	C334.729706,638.487671 332.869171,637.102173 330.838684,635.768921 
	C322.913330,630.564880 314.050720,628.075378 304.877747,626.194824 
	C301.927307,625.589966 300.048431,625.903320 298.752930,628.578247 
	C296.171143,633.908997 291.365051,635.906311 286.044830,637.232727 
	C272.176422,640.690552 258.119507,641.133728 244.063919,639.164368 
	C235.114380,637.910400 225.662308,637.001770 220.901794,627.194031 
	C219.910034,625.150818 217.706161,625.031982 215.611725,625.353394 
	C205.824463,626.855469 196.407532,629.271301 188.756256,636.116394 
	C185.435867,639.086975 185.543961,641.026794 189.429337,643.455933 
	C194.419632,646.575745 200.090683,648.017944 206.386292,650.046997 
M400.801361,741.122375 
	C403.527924,748.638611 406.070099,756.259338 412.783875,761.428040 
	C415.760590,763.719727 419.159454,764.955505 422.512146,763.001465 
	C426.248718,760.823608 425.413208,757.084900 424.429871,753.630859 
	C416.888702,727.142456 405.767944,702.096436 393.306183,677.641724 
	C389.041107,669.272034 382.209686,663.257507 373.131805,659.948914 
	C362.224335,655.973450 350.922852,656.419128 339.634125,656.441284 
	C336.897827,656.446655 336.480621,658.233459 336.370087,660.461243 
	C336.129639,665.308472 336.595886,670.088013 337.471497,674.840454 
	C337.974121,677.568542 339.618530,678.740051 342.412903,678.666931 
	C346.576385,678.557922 350.767883,678.922607 354.906860,678.586060 
	C368.387512,677.489868 376.869843,684.511658 382.934082,695.508423 
	C390.772186,709.721924 395.555939,725.146423 400.801361,741.122375 
M297.770294,665.421265 
	C296.137177,665.717529 294.512970,666.204163 292.869598,666.281128 
	C274.446228,667.144104 256.011749,667.965027 237.597366,666.285339 
	C229.203247,665.519714 220.838028,664.401550 212.479736,663.292358 
	C207.299057,662.604858 202.443146,660.120178 197.135788,660.114746 
	C195.476578,667.311951 195.897232,668.104614 202.611069,670.546570 
	C219.110992,676.547729 236.403488,679.048340 253.694366,680.425232 
	C276.038818,682.204468 298.058746,679.157959 319.358643,671.806091 
	C327.327209,669.055725 327.592285,668.453186 324.574341,659.393555 
	C316.087860,661.856934 307.738831,665.319031 297.770294,665.421265 
M361.593597,582.005981 
	C367.832764,579.301575 374.182526,576.835510 379.680939,572.668579 
	C388.104004,566.285217 393.045380,558.051147 391.408386,547.338684 
	C389.786560,536.725708 383.289001,529.947754 372.818726,526.834595 
	C365.018860,524.515442 363.887024,524.948120 362.007263,533.038818 
	C363.106934,534.173218 364.547913,534.358521 366.029358,534.690308 
	C373.745392,536.418091 381.188995,539.101929 383.100281,547.828918 
	C384.530670,554.359985 382.646515,562.107361 372.480408,568.505310 
	C360.630554,575.962830 347.391693,578.724792 334.031738,581.309265 
	C328.814026,582.318604 325.748810,585.577942 325.351624,591.621704 
	C337.377014,588.902588 349.344879,586.448914 361.593597,582.005981 
M371.484131,550.153748 
	C368.325928,545.124084 363.004211,543.773376 357.825378,543.186951 
	C354.077423,542.762634 352.969299,547.156372 350.934875,549.586731 
	C348.492249,552.504639 346.426147,555.738403 344.207489,558.842896 
	C341.878845,562.101196 339.160522,565.137756 337.686005,569.718872 
	C348.199005,567.466614 357.976624,565.117920 366.453094,559.339111 
	C369.252167,557.430847 372.079407,555.032349 371.484131,550.153748 
M265.899933,537.643738 
	C268.628174,537.897705 270.271118,536.539246 271.242035,534.109863 
	C272.006744,532.196411 271.006165,530.924561 269.731079,529.757263 
	C265.088989,525.507690 255.058060,525.286499 250.147797,529.154236 
	C247.817856,530.989502 248.434479,533.275146 248.738876,535.534546 
	C249.107422,538.270142 251.360489,537.588257 253.054382,537.624939 
	C257.039795,537.711121 261.028381,537.651245 265.899933,537.643738 
M300.944244,527.287720 
	C292.246887,523.043945 281.836884,528.361511 282.030609,537.220398 
	C287.429413,536.648804 292.834991,536.254578 298.180450,535.457520 
	C302.968018,534.743652 303.940125,532.184082 300.944244,527.287720 
M233.642120,528.793091 
	C229.368057,525.254517 224.764267,524.534485 219.793228,527.220459 
	C216.903290,528.781982 216.253967,532.733521 219.091644,534.047852 
	C225.022934,536.794922 231.417252,537.887634 238.104202,537.192444 
	C237.935837,533.463257 236.343338,531.216370 233.642120,528.793091 
M203.917816,532.586487 
	C204.682327,532.594238 205.488892,533.223267 206.402054,532.229248 
	C205.478073,529.468018 203.736038,527.088318 201.788254,524.845581 
	C199.138916,521.794983 193.909149,521.361206 190.822159,523.937195 
	C189.651398,524.914124 188.581741,526.086975 189.021042,527.762024 
	C189.427185,529.310608 190.863098,529.376770 192.195541,529.677246 
	C195.902802,530.513062 199.575424,531.502563 203.917816,532.586487 
M327.508484,523.825134 
	C320.064667,521.029846 314.186829,525.153259 314.234406,533.184692 
	C317.920502,533.072754 321.215881,531.431091 324.692871,530.524536 
	C325.482239,530.318787 326.237183,529.939636 326.969910,529.565674 
	C329.525818,528.261169 330.588135,526.622620 327.508484,523.825134 
M352.413177,513.078918 
	C344.419098,512.541687 340.951111,515.627258 339.217651,525.114502 
	C343.794586,524.330505 347.868896,522.765198 351.074768,519.537659 
	C352.636688,517.965210 354.418304,516.137268 352.413177,513.078918 
M172.756638,514.890747 
	C169.732925,513.186829 166.902054,514.236633 163.668671,515.255005 
	C166.777908,520.626282 171.177109,523.233154 177.007095,524.577759 
	C178.328232,520.084778 175.643005,517.777954 172.756638,514.890747 
M352.228516,502.588562 
	C350.506317,502.553680 349.076508,503.021118 348.063995,505.313995 
	C350.846985,505.534790 353.328552,505.731689 355.978302,505.941895 
	C355.636261,503.800598 354.008728,503.541901 352.228516,502.588562 
M166.561417,504.576752 
	C167.326797,504.466064 168.239655,504.672150 168.684952,503.348297 
	C165.820831,501.835175 163.179825,501.811523 159.457153,504.602203 
	C162.411575,504.602203 164.141891,504.602203 166.561417,504.576752 
z"/>
<path fill="#000000" opacity="1.000000" stroke="none" 
	d="
M219.966690,459.558716 
	C219.874176,450.624451 223.582397,443.407593 228.345520,436.758789 
	C231.020386,433.024933 235.767319,433.390503 239.058731,437.104004 
	C244.068405,442.756165 247.138626,449.005127 246.486374,456.986359 
	C245.806198,465.309113 241.697067,470.549866 234.110535,471.274353 
	C227.664902,471.889862 221.936111,467.276855 219.966690,459.558716 
M232.476578,446.013275 
	C230.740005,449.288208 230.032913,452.883087 229.479355,456.476135 
	C229.123505,458.785828 230.376175,460.318207 232.789536,460.564575 
	C235.206314,460.811249 236.576508,459.761810 236.640411,457.200409 
	C236.748566,452.865540 236.280014,448.739136 232.476578,446.013275 
z"/>
<path fill="#000000" opacity="1.000000" stroke="none" 
	d="
M576.692810,832.688721 
	C580.870056,833.255066 583.462280,835.429260 583.386536,839.164551 
	C583.304993,843.192261 579.776550,844.365112 576.439331,845.066650 
	C573.455627,845.693787 570.512146,845.168152 567.663574,844.121887 
	C565.228943,843.227661 563.835083,841.505188 563.835388,838.903259 
	C563.835693,836.175293 565.701965,834.660217 567.983948,833.927979 
	C570.641357,833.075317 573.392700,832.336914 576.692810,832.688721 
z"/>
<path fill="#000000" opacity="1.000000" stroke="none" 
	d="
M671.848022,842.104858 
	C670.180542,838.877930 671.464844,836.881531 673.970398,835.674561 
	C677.277405,834.081238 680.637207,833.119690 684.504272,834.364624 
	C687.489807,835.325623 690.040649,836.709839 690.114624,839.803589 
	C690.188538,842.890564 687.331604,843.988892 684.653625,844.702026 
	C680.097473,845.915405 675.789856,845.758667 671.848022,842.104858 
z"/>
<path fill="#000000" opacity="1.000000" stroke="none" 
	d="
M654.296021,840.961853 
	C651.064514,845.735535 644.031799,847.623535 639.808350,845.262085 
	C637.945496,844.220642 636.751709,842.787537 636.726807,840.519226 
	C636.701721,838.230713 637.906555,836.826233 639.780151,835.781006 
	C645.095276,832.815918 651.774902,834.999817 654.296021,840.961853 
z"/>
<path fill="#000000" opacity="1.000000" stroke="none" 
	d="
M719.396973,840.764343 
	C717.272766,844.671509 713.851501,844.520081 710.553406,844.270142 
	C707.270020,844.021362 704.103210,842.949219 703.888123,839.040649 
	C703.675659,835.179810 706.748657,833.640625 709.869019,832.867493 
	C715.805969,831.396545 720.617737,835.285095 719.396973,840.764343 
z"/>
<path fill="#000000" opacity="1.000000" stroke="none" 
	d="
M514.764404,845.464294 
	C510.975494,845.044922 509.119598,842.747742 509.224365,839.765320 
	C509.318237,837.092834 512.115112,836.007019 514.384277,834.959106 
	C514.532349,834.890808 514.700134,834.854431 514.862793,834.830017 
	C518.994812,834.208740 522.820374,834.765015 525.779053,838.021362 
	C527.001160,839.366577 527.415771,841.266541 526.047607,842.533325 
	C523.013306,845.342957 519.318481,846.460510 514.764404,845.464294 
z"/>
<path fill="#000000" opacity="1.000000" stroke="none" 
	d="
M453.470490,835.426270 
	C460.461395,830.871033 465.904358,831.975586 468.583649,838.046570 
	C469.116791,839.254578 469.224762,840.063782 468.391876,841.166321 
	C464.880524,845.814392 455.062103,845.213135 452.359039,840.153442 
	C451.422974,838.401367 451.878510,836.992920 453.470490,835.426270 
z"/>
<path fill="#000000" opacity="1.000000" stroke="none" 
	d="
M612.788086,846.222168 
	C607.806274,845.849854 603.373169,842.670349 603.517944,839.911133 
	C603.673828,836.939758 608.840027,834.319275 613.675171,834.701050 
	C617.006714,834.964172 619.540100,836.498169 620.102783,839.829163 
	C620.643250,843.028015 618.227478,844.479797 615.552734,845.403137 
	C614.771790,845.672729 613.983337,845.920776 612.788086,846.222168 
z"/>
<path fill="#000000" opacity="1.000000" stroke="none" 
	d="
M166.542816,836.328735 
	C170.177322,835.093201 173.457642,835.105164 176.500137,836.857361 
	C179.948364,838.843201 180.131195,841.715759 176.863235,843.865356 
	C173.102493,846.339233 168.864029,846.275269 164.978256,844.479614 
	C160.928879,842.608154 161.495102,839.620605 166.542816,836.328735 
z"/>
<path fill="#000000" opacity="1.000000" stroke="none" 
	d="
M475.367737,843.171082 
	C473.455536,841.045593 472.115906,838.878296 473.977966,836.479736 
	C475.515259,834.499451 477.619720,834.561890 479.805634,835.546875 
	C481.710938,836.405396 483.513153,837.399963 482.992615,839.851990 
	C482.539032,841.988525 481.071045,843.262817 478.754791,843.285034 
	C477.765930,843.294495 476.776733,843.271240 475.367737,843.171082 
z"/>
<path fill="#000000" opacity="1.000000" stroke="none" 
	d="
M449.824249,287.306824 
	C451.426331,279.842468 457.138885,275.237610 460.416718,269.175812 
	C462.107544,266.048889 474.322937,264.149078 477.713867,266.025635 
	C483.859802,269.426788 487.854980,273.733734 485.691956,280.731140 
	C484.633423,284.155457 487.472656,287.618927 485.245117,290.937347 
	C482.130920,295.576660 479.494324,300.614960 475.887787,304.827057 
	C470.501373,311.117920 457.981262,308.137848 455.625916,300.312653 
	C455.227600,298.989349 454.771271,297.805298 453.652649,296.971252 
	C450.534790,294.646545 449.857727,291.305725 449.824249,287.306824 
M477.629669,268.390961 
	C474.486542,267.805511 470.981567,266.942657 469.103058,270.349976 
	C466.984131,274.193390 466.213226,278.585541 467.454071,282.920959 
	C468.689423,287.237213 472.947174,288.898071 475.908173,286.535034 
	C479.725647,283.488464 481.163452,272.859009 477.629669,268.390961 
z"/>
<path fill="#000000" opacity="1.000000" stroke="none" 
	d="
M496.415985,303.735840 
	C500.787842,303.294312 504.568054,303.810852 507.589386,306.552612 
	C509.787842,308.547607 511.517548,307.980316 513.741089,306.595093 
	C519.852417,302.787842 523.254456,302.790192 525.541687,306.234222 
	C527.528503,309.225830 525.857361,313.018616 520.845398,316.892883 
	C516.323792,320.388123 516.497437,322.497559 521.569702,325.201019 
	C522.887451,325.903381 524.287781,326.449341 525.616333,327.132965 
	C528.211304,328.468323 529.946106,330.406006 529.061768,333.518799 
	C528.203369,336.539948 526.087402,338.110596 522.863281,338.366486 
	C518.790588,338.689728 515.838745,336.367126 513.109985,334.063782 
	C510.332031,331.718903 508.451050,331.800598 506.031891,334.453735 
	C503.289246,337.461609 499.959290,339.865234 495.549286,338.257355 
	C490.250763,336.325531 489.513641,331.491089 493.801117,327.889099 
	C501.562042,321.368927 501.562042,321.368927 494.779755,313.886383 
	C490.512299,309.178284 490.768738,307.033295 496.415985,303.735840 
z"/>
<path fill="#000000" opacity="1.000000" stroke="none" 
	d="
M588.318115,310.676025 
	C584.451721,312.817322 581.425842,310.503418 578.407837,309.064423 
	C566.038330,303.166534 562.130066,284.054565 571.001038,273.439758 
	C574.258301,269.542175 578.151306,267.734650 583.070679,267.834778 
	C583.259827,268.099121 583.665588,268.465912 583.596558,268.620331 
	C580.612671,275.292786 582.814697,281.566162 584.961060,287.878479 
	C587.436768,295.159332 587.019470,302.906464 588.318115,310.676025 
z"/>
<path fill="#000000" opacity="1.000000" stroke="none" 
	d="
M538.201477,181.470795 
	C540.497498,186.057312 538.172424,189.180344 535.239685,191.698318 
	C533.460327,193.226028 530.868896,193.234177 528.615295,192.067459 
	C526.405884,190.923660 526.452332,188.779770 526.820312,186.820877 
	C527.382019,183.831390 529.333801,181.749023 532.180847,180.794968 
	C534.070679,180.161682 536.115784,180.081879 538.201477,181.470795 
z"/>
<path fill="#000000" opacity="1.000000" stroke="none" 
	d="
M517.282166,181.850067 
	C520.971130,184.041306 520.706604,186.689560 518.728943,189.488312 
	C516.817688,192.193069 514.337524,194.461685 510.879486,192.935806 
	C508.321198,191.806946 507.161682,189.059784 507.849915,186.255432 
	C509.042511,181.396088 512.946167,181.392929 517.282166,181.850067 
z"/>
<path fill="#000000" opacity="1.000000" stroke="none" 
	d="
M496.458557,615.787781 
	C491.960907,613.774658 488.638153,610.692688 485.064575,608.006775 
	C482.126160,605.798218 481.470978,602.437988 481.802277,599.005920 
	C483.567780,580.716248 482.264435,562.384338 482.654327,544.076965 
	C482.908417,532.146545 483.265137,531.862610 495.340149,532.601624 
	C513.785278,533.730530 532.256714,533.792847 550.729492,533.654846 
	C558.209534,533.598999 565.690063,533.566650 573.170166,533.583862 
	C574.117065,533.586060 575.063110,533.955994 576.396484,534.237122 
	C576.396484,541.169983 576.397217,547.972229 576.396301,554.774414 
	C576.394470,568.938354 576.267883,583.103943 576.448120,597.265564 
	C576.524902,603.293030 574.388794,607.685181 569.432190,611.225098 
	C556.956177,620.135315 543.148743,625.761597 527.972595,626.950867 
	C521.467346,627.460571 514.905762,624.775635 509.066101,621.422729 
	C505.145599,619.171631 501.122009,617.250000 496.458557,615.787781 
M528.476135,617.567871 
	C540.409668,615.910339 551.051025,610.949158 561.206299,604.752686 
	C563.474731,603.368469 565.652344,602.163635 565.704346,598.800720 
	C565.964111,581.998169 564.802673,565.171936 566.600403,548.389832 
	C567.021362,544.460022 565.871399,541.746277 560.881042,543.137268 
	C559.013794,543.657776 556.906006,543.299255 554.909058,543.372986 
	C536.077820,544.067810 517.293030,542.167480 498.469147,542.353455 
	C495.427216,542.383545 493.668945,542.837830 493.310699,546.610046 
	C491.668213,563.904968 492.727020,581.224060 492.432556,598.526978 
	C492.407684,599.989014 492.120331,601.707336 493.702240,602.592529 
	C501.522797,606.968445 507.331818,614.979858 517.477539,615.239319 
	C520.885864,615.326599 524.260315,616.737061 528.476135,617.567871 
z"/>
<path fill="#000000" opacity="1.000000" stroke="none" 
	d="
M611.756958,643.296753 
	C608.608337,643.378052 605.777466,643.615479 605.719055,639.644226 
	C605.670654,636.351685 606.201965,633.151794 609.706787,631.944031 
	C611.656555,631.272095 613.886047,632.218933 614.462646,634.410400 
	C615.313049,637.642456 616.578064,641.253296 611.756958,643.296753 
z"/>
<path fill="#000000" opacity="1.000000" stroke="none" 
	d="
M611.144043,567.703003 
	C616.494995,569.169678 614.009827,573.081726 614.107971,575.932007 
	C614.192871,578.395081 611.889343,578.405823 610.033813,578.261780 
	C607.593445,578.072266 605.773682,576.718323 605.868164,574.260132 
	C605.986023,571.195618 606.126526,567.685852 611.144043,567.703003 
z"/>
<path fill="#000000" opacity="1.000000" stroke="none" 
	d="
M611.989014,590.771423 
	C616.002991,593.280212 614.693909,596.849548 613.644653,599.578796 
	C612.732544,601.951172 609.622620,602.112244 607.835388,600.208618 
	C606.038147,598.294250 605.603027,595.369873 606.169800,592.833984 
	C606.791687,590.051758 609.467468,590.778625 611.989014,590.771423 
z"/>
<path fill="#000000" opacity="1.000000" stroke="none" 
	d="
M608.340698,655.246094 
	C610.898438,654.685486 612.591736,655.344788 613.617310,657.391357 
	C614.826355,659.804016 614.218140,662.153503 612.347473,663.641846 
	C610.621216,665.015381 607.901001,665.242065 606.612549,663.131653 
	C605.010925,660.508179 604.714722,657.490784 608.340698,655.246094 
z"/>
<path fill="#000000" opacity="1.000000" stroke="none" 
	d="
M609.255005,621.225708 
	C605.340454,620.201294 605.216614,617.529175 605.989258,614.850830 
	C606.784180,612.095520 609.353943,612.605774 611.436768,612.779358 
	C614.075195,612.999268 614.281677,615.025757 614.358215,617.142334 
	C614.478516,620.473145 612.717346,621.548767 609.255005,621.225708 
z"/>
<path fill="#000000" opacity="1.000000" stroke="none" 
	d="
M613.964722,550.022766 
	C614.507324,552.788635 615.508545,555.511047 611.761353,556.200439 
	C609.631592,556.592285 607.748413,555.947205 606.738586,553.890930 
	C605.830994,552.042664 607.004272,550.636536 608.262878,549.568665 
	C610.050720,548.051697 612.026855,547.334534 613.964722,550.022766 
z"/>
<path fill="#000000" opacity="1.000000" stroke="none" 
	d="
M184.694763,806.403564 
	C180.213226,802.796265 176.928436,798.604309 174.153656,794.033386 
	C169.845230,786.935913 171.070282,782.216858 177.951782,777.597595 
	C186.445770,771.895813 196.177841,769.678223 205.927475,767.713867 
	C217.995529,765.282349 230.301880,765.188538 242.564407,764.547058 
	C254.696121,763.912292 266.780884,764.751770 278.884338,764.780212 
	C291.831635,764.810669 304.609589,767.122131 317.261261,769.801819 
	C319.885864,770.357666 322.515137,770.517761 325.127258,770.959778 
	C333.566681,772.387939 340.500092,777.629883 348.523407,780.149109 
	C352.142517,781.285461 351.638916,784.242920 350.770142,787.200867 
	C346.638306,801.269043 336.387695,809.208862 323.444092,814.259827 
	C307.158173,820.615051 290.043091,822.934937 272.716461,823.295654 
	C251.442795,823.738525 230.189987,823.146545 209.491531,817.291260 
	C200.854248,814.848022 192.220413,812.321716 184.694763,806.403564 
M252.562286,774.393921 
	C229.388626,775.711487 205.986191,775.844238 184.020142,786.903870 
	C189.711227,794.295959 197.149902,796.660583 204.739502,798.585938 
	C220.401108,802.559021 236.482193,803.609314 252.503571,804.541382 
	C275.160065,805.859497 297.609039,803.849304 319.715424,798.443176 
	C324.852936,797.186768 330.132263,796.511353 335.272095,795.263000 
	C338.752045,794.417725 339.393677,791.616333 338.551788,788.540161 
	C337.637238,785.198547 335.247223,786.807495 333.256378,787.223389 
	C331.956848,787.494934 330.646454,787.968079 329.348083,787.945190 
	C325.009705,787.868896 319.993317,787.950500 318.172821,783.311829 
	C316.783234,779.771179 314.538849,778.919922 311.573547,778.361328 
	C292.386810,774.746643 272.907990,775.356873 252.562286,774.393921 
z"/>
<path fill="#000000" opacity="1.000000" stroke="none" 
	d="
M314.473724,749.154663 
	C313.460266,743.578186 314.936768,741.690979 320.689697,740.576233 
	C325.670959,739.611023 330.311127,741.803040 331.164459,745.740356 
	C332.033905,749.752014 329.997070,752.351685 326.244141,753.051331 
	C321.943298,753.853149 317.505920,754.037231 314.473724,749.154663 
z"/>
<path fill="#000000" opacity="1.000000" stroke="none" 
	d="
M308.711670,711.998779 
	C310.366974,706.817383 318.285034,704.541504 321.667511,707.928650 
	C323.475037,709.738708 324.042175,712.005615 322.508240,714.270020 
	C320.464294,717.287292 317.299103,717.634521 314.039307,717.252380 
	C311.205536,716.920288 308.872498,715.819763 308.711670,711.998779 
z"/>
<path fill="#000000" opacity="1.000000" stroke="none" 
	d="
M193.838776,742.736694 
	C193.699722,739.098511 194.308350,736.245911 198.149109,735.733398 
	C201.503128,735.285889 204.600800,736.030518 205.992615,739.464539 
	C206.946350,741.817688 206.226776,744.382263 203.835144,745.398254 
	C200.198257,746.943237 196.414886,747.443420 193.838776,742.736694 
z"/>
<path fill="#000000" opacity="1.000000" stroke="none" 
	d="
M204.760544,707.862305 
	C204.673035,703.713684 207.694153,703.301941 210.155746,702.976440 
	C212.596359,702.653809 215.144455,703.430542 216.574661,705.775024 
	C217.766281,707.728516 218.051971,710.081482 216.158142,711.634033 
	C213.555923,713.767334 210.444199,714.149109 207.473129,712.219971 
	C206.107651,711.333313 204.945099,710.089722 204.760544,707.862305 
z"/>
<path fill="#000000" opacity="1.000000" stroke="none" 
	d="
M266.935974,612.501953 
	C270.875916,606.104919 275.019592,607.184387 278.887451,609.052795 
	C281.359985,610.247253 281.917633,612.544250 280.987122,614.945129 
	C279.320404,619.245483 275.460632,618.534912 272.104584,618.210999 
	C269.137665,617.924683 265.954712,617.264099 266.935974,612.501953 
z"/>
<path fill="#000000" opacity="1.000000" stroke="none" 
	d="
M251.307434,610.138977 
	C254.501312,613.789307 253.491165,616.555908 249.998550,618.558716 
	C246.273239,620.695007 240.276474,619.099487 239.157150,615.735107 
	C238.236053,612.966614 239.524567,610.831909 242.036743,609.628601 
	C245.020615,608.199402 248.086685,608.013245 251.307434,610.138977 
z"/>
<path fill="#000000" opacity="1.000000" stroke="none" 
	d="
M288.121918,555.680542 
	C292.431030,555.592896 294.409851,557.442627 294.375122,561.374634 
	C294.346649,564.594360 292.765717,566.429749 289.528107,566.316589 
	C286.656799,566.216309 283.059906,566.685913 282.529022,562.573242 
	C282.055267,558.903015 283.307037,555.979309 288.121918,555.680542 
z"/>
<path fill="#000000" opacity="1.000000" stroke="none" 
	d="
M239.398926,582.262939 
	C240.345154,578.482666 242.880722,577.494507 245.879974,578.029480 
	C249.014908,578.588684 251.553925,580.521667 251.432404,583.971802 
	C251.297867,587.791382 247.566940,587.723938 245.108414,588.116577 
	C241.362991,588.714783 239.384323,586.429810 239.398926,582.262939 
z"/>
<path fill="#000000" opacity="1.000000" stroke="none" 
	d="
M277.389435,578.860229 
	C278.283508,578.741577 278.781525,578.692871 279.279633,578.691772 
	C282.511505,578.684875 284.786163,580.111511 285.333527,583.379272 
	C285.825500,586.316101 283.760651,587.691895 281.312836,588.122009 
	C278.523956,588.612061 275.229126,588.850342 273.913391,585.738403 
	C272.716888,582.908569 273.571136,580.128662 277.389435,578.860229 
z"/>
<path fill="#000000" opacity="1.000000" stroke="none" 
	d="
M220.506073,585.313599 
	C219.226624,585.749268 218.294708,586.190857 217.330414,586.279175 
	C214.358551,586.551453 212.084091,585.367798 211.022537,582.514709 
	C210.227341,580.377441 210.957794,578.300598 212.916504,577.370117 
	C215.780014,576.010010 218.804428,576.074219 221.113525,578.693481 
	C223.007797,580.842224 223.310181,583.105225 220.506073,585.313599 
z"/>
<path fill="#000000" opacity="1.000000" stroke="none" 
	d="
M308.293213,580.108276 
	C308.301239,580.857666 308.339355,581.200867 308.268677,581.520081 
	C307.464111,585.153564 304.714752,586.234314 301.547150,585.986206 
	C299.508759,585.826538 297.781097,584.421082 297.812836,582.003479 
	C297.851837,579.028992 299.379456,576.731445 302.220612,576.085632 
	C305.027954,575.447571 307.485291,576.426941 308.293213,580.108276 
z"/>
</svg>