<svg version="1.1" id="Layer_1" xmlns="http://www.w3.org/2000/svg" xmlns:xlink="http://www.w3.org/1999/xlink" x="0px" y="0px"
	 width="100%" viewBox="0 0 1024 1024" enable-background="new 0 0 1024 1024" xml:space="preserve">
<path fill="#000000" opacity="1.000000" stroke="none" 
	d="
M705.637634,489.825592 
	C704.048645,488.097931 702.727234,486.631042 701.405823,485.164154 
	C701.107300,485.340179 700.808716,485.516205 700.510193,485.692230 
	C702.285156,488.446442 704.030579,491.220276 705.840515,493.951324 
	C711.882507,503.068237 716.867676,512.636292 717.522644,523.811401 
	C718.776855,545.210388 706.299377,569.004089 677.613403,569.343750 
	C675.976074,569.363098 674.339905,569.484009 671.966736,569.590820 
	C672.771667,577.475281 672.788696,585.114807 673.577576,592.608398 
	C674.814392,604.357971 675.085449,616.155151 676.158020,627.906677 
	C677.003601,637.171326 677.221252,646.512878 677.301331,655.823914 
	C677.519104,681.128906 675.951294,706.284668 672.645142,731.433777 
	C669.330688,756.646179 665.949951,781.819458 660.233337,806.588867 
	C655.626709,826.548950 650.358582,846.414856 638.054688,863.401062 
	C631.063049,873.053406 622.584229,880.766357 610.360474,883.326538 
	C593.670044,886.822205 581.110779,880.046814 571.023621,867.502502 
	C561.018250,855.060059 555.376160,840.508118 551.703125,825.140259 
	C549.810974,817.223755 548.060425,809.266174 547.413391,801.117920 
	C547.088379,797.026001 545.361877,795.161072 540.736633,795.231689 
	C522.077332,795.517090 503.410797,795.432617 484.748016,795.312927 
	C481.112183,795.289612 479.815369,796.310791 479.019196,800.172791 
	C475.261139,818.401001 471.389374,836.637939 463.422974,853.665527 
	C459.259979,862.563721 453.650360,870.441528 445.942505,876.457275 
	C429.691498,889.140625 404.728851,885.163635 391.643860,868.210388 
	C380.284576,853.493164 374.950073,836.131531 369.934601,818.665405 
	C362.536713,792.902588 357.991364,766.530090 353.847412,740.100647 
	C349.475677,712.218506 348.972656,684.105164 349.834320,655.962952 
	C350.195709,644.159973 350.992279,632.367432 351.766052,620.581665 
	C352.019165,616.726624 351.001495,614.388245 347.399384,612.160217 
	C334.096588,603.932129 328.353699,590.742493 325.717010,576.047852 
	C321.061218,550.100403 328.989746,526.661133 340.995209,504.244171 
	C354.027740,479.909424 370.488098,457.901123 387.913818,436.595825 
	C390.461975,433.480408 391.201202,431.559113 387.102112,428.819550 
	C361.149841,411.474915 346.418793,386.629822 340.850922,356.393250 
	C336.761566,334.185516 340.355347,312.429352 346.963379,291.010437 
	C354.538574,266.456604 365.306610,243.500824 380.234711,222.585144 
	C383.120880,218.541367 380.238007,216.257355 378.467163,213.831177 
	C369.128357,201.035965 360.511017,187.777893 352.385559,174.193146 
	C341.909668,156.678772 332.488861,138.612900 329.297180,118.210678 
	C326.576172,100.817268 329.376251,84.211136 340.885773,70.177437 
	C356.796997,50.776711 381.751190,47.638126 403.925293,60.963459 
	C422.129242,71.902969 434.500488,88.328369 445.272644,106.235405 
	C454.935638,122.298744 463.147003,138.943802 468.183716,157.062881 
	C468.671661,158.818253 469.473053,160.485367 470.106567,162.201721 
	C470.877991,164.291779 472.369019,164.952896 474.462494,164.433472 
	C491.441467,160.220703 508.756836,160.675156 526.047241,160.629791 
	C533.904785,160.609177 541.640686,161.824600 549.275757,163.243820 
	C553.869202,164.097641 555.653992,162.735123 556.923950,158.735489 
	C560.551086,147.311844 564.136108,135.824997 569.911377,125.266953 
	C580.866699,105.239120 591.859192,85.264908 609.307800,69.741608 
	C620.421326,59.854427 632.946289,53.485184 647.801331,52.796070 
	C666.741821,51.917435 685.963318,65.760048 693.304321,84.523537 
	C699.964111,101.546104 698.430481,118.504135 692.928833,135.308090 
	C686.968201,153.514008 676.769104,169.592239 666.356506,185.474426 
	C659.783325,195.500366 652.926514,205.353607 645.838013,215.021210 
	C643.293518,218.491516 643.577637,220.915482 645.892334,224.260071 
	C662.537048,248.310135 674.606812,274.465515 681.647888,302.909332 
	C688.570557,330.874695 688.094055,358.272461 675.411621,384.696320 
	C667.127197,401.956879 655.614319,416.617279 639.848328,427.745239 
	C634.226685,431.713043 634.257935,431.841125 638.440186,437.365295 
	C642.863403,443.207672 647.278809,449.055939 651.708923,454.893097 
	C652.500610,455.936279 653.132874,457.185852 655.233765,457.530060 
	C658.871887,454.239685 662.930054,450.829376 666.692139,447.118774 
	C678.429321,435.542053 690.067505,423.864807 701.717957,412.200378 
	C708.244446,405.666016 715.567871,400.274078 723.772217,395.992310 
	C728.912903,393.309448 733.920227,392.984711 739.038391,395.676636 
	C748.101990,400.443665 755.289368,407.417847 754.936157,417.978760 
	C754.730225,424.137451 755.342651,428.236115 759.668274,432.809082 
	C764.232422,437.634247 763.515991,442.515747 758.173584,448.418335 
	C748.680237,458.907257 739.070862,469.324066 728.118469,478.373688 
	C724.270264,481.553345 720.516296,484.847076 716.717041,488.086090 
	C713.498596,490.829956 710.109314,492.663971 705.637634,489.825592 
M343.403870,580.031372 
	C351.590851,599.374207 367.027130,607.272827 387.294434,602.489746 
	C404.435608,598.444458 412.502411,578.119385 402.567627,563.651917 
	C397.568329,556.371704 391.457336,550.405212 382.335999,548.405762 
	C378.285645,547.517944 374.341614,546.150391 370.339355,545.036316 
	C363.810822,543.219055 358.948669,539.625671 357.158600,532.745544 
	C355.864075,527.769958 358.169952,523.324585 362.947540,521.521179 
	C367.520233,519.795166 372.581146,521.205078 376.385681,525.524170 
	C378.508179,527.933716 380.626312,530.198059 383.823914,531.164124 
	C386.865295,532.083008 388.756500,531.474365 388.724487,527.865967 
	C388.694916,524.533447 388.632660,521.198242 388.726654,517.868225 
	C389.083496,505.224152 398.816986,494.398407 411.449524,492.625244 
	C431.738892,489.777405 452.262238,492.134552 472.621338,489.873566 
	C478.811554,489.186127 484.578827,490.084076 485.488495,481.839844 
	C485.555115,481.236206 486.138031,480.693237 486.467316,480.114319 
	C493.098267,468.456573 503.193146,464.653351 516.312866,465.475708 
	C530.286621,466.351593 540.299438,473.731110 543.287109,487.433075 
	C543.772705,489.659760 544.720520,490.706421 546.897217,490.619415 
	C553.905945,490.339447 560.851929,491.262207 567.827759,491.619171 
	C582.091064,492.348999 596.464783,490.519592 610.635132,493.477753 
	C612.331665,493.831879 613.645996,492.947357 614.557495,491.758911 
	C621.119934,483.202972 629.432922,476.564728 638.028503,470.249481 
	C640.688721,468.295013 640.622131,466.424377 638.709167,464.022186 
	C634.663635,458.941864 630.709778,453.787933 626.752930,448.637634 
	C620.302551,440.241791 620.374878,440.352173 611.190796,445.016235 
	C604.249939,448.541168 597.505371,452.795624 589.433838,453.283325 
	C584.121338,453.604340 581.339661,451.326874 579.956848,446.368958 
	C578.575806,441.417358 581.966125,439.957916 585.462891,438.452881 
	C598.767456,432.726776 612.108154,427.120850 624.380432,419.246704 
	C659.885986,396.465668 675.670410,359.239441 669.093445,321.253998 
	C663.130249,286.812927 650.788330,254.528488 628.023376,227.127396 
	C625.000122,223.488449 625.019287,220.054047 627.580688,216.223282 
	C638.504333,199.886108 649.447449,183.560608 660.204712,167.113922 
	C671.122192,150.422287 680.777039,133.086533 682.246033,112.640488 
	C683.311768,97.807182 679.463928,82.499985 664.928528,73.696510 
	C650.898438,65.199158 637.131836,68.177071 624.816772,77.370766 
	C606.350464,91.156570 594.693604,110.429703 584.243530,130.499313 
	C576.741882,144.906235 571.728394,160.192184 567.722717,175.880493 
	C565.633667,184.062592 563.043213,185.510132 555.143127,182.765823 
	C546.926758,179.911652 538.637451,177.808899 529.944275,177.069702 
	C510.388489,175.406830 491.058807,175.932892 472.336121,182.570160 
	C462.268585,186.139130 459.171631,184.613678 456.856110,174.249969 
	C450.262878,144.740051 436.088318,118.861603 417.915222,95.153816 
	C410.412445,85.366005 400.833649,77.365097 389.240967,72.319260 
	C370.521423,64.171394 350.506775,73.392700 345.515320,93.133720 
	C342.301025,105.846115 344.165405,118.558540 348.677429,130.838593 
	C355.672760,149.877274 365.845490,167.269302 376.815552,184.187943 
	C383.518372,194.525452 390.608063,204.613098 396.883942,215.227814 
	C399.612457,219.842651 399.830750,224.231659 395.885406,228.425720 
	C393.609589,230.845016 391.494141,233.435959 389.495483,236.091858 
	C376.407379,253.484161 368.039917,273.191528 361.708496,293.814697 
	C356.000824,312.406189 352.660889,331.471832 355.570831,350.870300 
	C359.759125,378.790253 373.871521,400.751373 397.248138,416.852875 
	C409.590546,425.354156 423.204010,431.058319 436.989288,436.516357 
	C439.013947,437.317963 441.004120,438.117035 442.734833,439.470612 
	C446.616241,442.506256 445.199097,446.216217 444.204895,449.966370 
	C443.284332,453.438568 440.714111,453.377960 437.937775,453.389221 
	C428.163483,453.428802 419.959381,448.531494 411.770050,444.349213 
	C406.540466,441.678467 403.772522,442.511993 400.123535,446.481232 
	C376.884247,471.760315 358.538666,500.233063 345.533783,531.913147 
	C339.307892,547.079346 337.917633,563.191589 343.403870,580.031372 
M406.340973,618.752136 
	C406.371979,634.743774 405.208862,650.699585 405.245728,666.704895 
	C405.318298,698.186890 405.842560,729.681335 404.208099,761.150146 
	C403.572693,773.383850 408.633942,778.694031 420.905884,778.641174 
	C451.222626,778.510681 481.519073,779.839905 511.855072,779.142273 
	C544.336731,778.395264 576.844238,778.783508 609.340271,778.640015 
	C617.940491,778.602051 622.692566,773.781982 622.358582,765.796326 
	C621.432068,743.647156 621.180054,721.467590 621.938721,699.331848 
	C623.366577,657.671326 622.428711,616.038696 621.596680,574.397156 
	C621.535278,571.321289 620.817078,568.258606 620.425354,565.347229 
	C618.211975,565.009094 617.627075,566.449951 616.672729,567.272278 
	C603.120850,578.950989 587.165344,585.163940 569.624634,587.250305 
	C562.072632,588.148560 559.059753,584.085449 561.356873,576.820679 
	C569.038452,552.527405 581.606628,531.343384 601.342468,514.773926 
	C603.543945,512.925659 606.055603,511.171143 607.323181,507.755615 
	C595.733459,506.564392 584.687866,507.919617 573.635864,508.549805 
	C572.047546,508.640350 571.462524,509.857239 571.388062,511.363678 
	C571.288452,513.378967 571.636047,515.308167 572.060120,517.282715 
	C575.297119,532.354614 567.103455,541.369080 551.879761,539.900269 
	C540.418396,538.794434 528.915894,539.395813 517.424683,539.630249 
	C501.933746,539.946350 486.439056,540.252625 470.946472,540.230042 
	C464.342255,540.220398 459.148987,534.997070 458.660492,528.680786 
	C458.237701,523.213745 457.682190,517.729797 457.754456,512.260803 
	C457.807953,508.208893 456.253784,507.091522 452.455017,507.161499 
	C441.125702,507.370300 429.791382,507.304321 418.459045,507.353241 
	C410.117798,507.389252 405.528687,511.825073 405.340332,520.200378 
	C405.227966,525.196960 405.596161,530.216431 405.259857,535.192688 
	C404.868835,540.978516 407.007202,545.123840 411.045593,549.308594 
	C419.876495,558.459412 424.258270,569.610229 422.317352,582.517517 
	C420.941833,591.664917 416.150909,599.315857 410.430054,606.374268 
	C407.688812,609.756409 406.091888,613.433960 406.340973,618.752136 
M565.065735,796.269714 
	C562.713318,796.186646 561.341919,796.527710 561.951660,799.656555 
	C563.954407,809.933044 565.974670,820.202576 569.260620,830.154297 
	C573.135071,841.888245 577.295837,853.443604 587.002808,862.033142 
	C597.234375,871.086975 608.842651,871.377563 618.786255,862.089905 
	C630.685913,850.975098 636.198242,836.279297 640.568359,821.169189 
	C645.880859,802.800659 649.137085,783.977661 652.040833,765.088135 
	C656.357727,737.005920 660.626160,708.909424 660.975586,680.434631 
	C661.214600,660.958252 660.991638,641.460693 659.541504,622.024170 
	C658.267151,604.943787 656.815735,587.886841 657.620483,570.734863 
	C657.682617,569.410461 657.840759,567.969238 656.420227,567.173218 
	C650.702942,563.969299 644.540649,561.640564 638.881226,557.031494 
	C636.778137,571.165710 637.791138,584.098816 637.873230,597.050476 
	C638.236511,654.368042 638.267883,711.688171 638.291992,769.007324 
	C638.298889,785.436707 627.350281,796.224792 610.931824,796.308655 
	C595.935730,796.385254 580.938782,796.301758 565.065735,796.269714 
M389.671753,743.472168 
	C389.770844,737.974121 389.751648,732.470886 389.988342,726.978821 
	C391.467133,692.663452 390.260040,658.332397 390.675842,624.011719 
	C390.718292,620.507629 389.152588,619.652161 386.021423,620.311462 
	C381.265137,621.313110 376.499786,621.788208 371.667603,620.589722 
	C368.830750,619.886169 367.709412,621.658813 367.435425,624.138062 
	C365.422913,642.350220 364.266235,660.668518 364.655243,678.938293 
	C365.089783,699.350098 366.005188,719.782288 369.188202,740.069580 
	C373.437653,767.154053 378.024780,794.153870 385.608093,820.522827 
	C389.674744,834.663452 395.184875,848.310974 404.968018,859.645569 
	C416.331970,872.811523 433.718750,871.654358 443.643066,857.396790 
	C447.379608,852.028748 450.348907,846.287659 452.854065,840.268616 
	C458.055939,827.770203 460.693909,814.506104 464.487061,801.587219 
	C466.270538,795.512817 466.193451,795.362793 459.976776,795.351074 
	C444.310425,795.321472 428.642456,795.460938 412.978119,795.278259 
	C400.417450,795.131775 391.656281,786.702942 389.482819,774.348999 
	C387.712585,764.287415 390.168335,754.417603 389.671753,743.472168 
M653.742859,546.716248 
	C659.085205,550.326538 665.046326,552.075562 671.360168,553.234314 
	C686.708679,556.051208 701.988586,543.637512 702.743530,528.061523 
	C703.423706,514.026184 695.100952,504.838989 686.609985,495.580536 
	C686.012207,494.928741 684.817749,494.492279 683.909607,494.506805 
	C670.306396,494.724030 656.633972,492.825989 643.133545,496.184662 
	C627.317505,500.119385 621.995605,514.572693 631.771118,527.757080 
	C637.507324,535.493530 645.050293,541.238953 653.742859,546.716248 
M533.477417,503.462677 
	C529.531921,501.539703 530.079102,497.593842 529.778870,494.331879 
	C529.358887,489.769318 527.353333,486.360229 523.729309,483.949188 
	C513.836060,477.367371 497.772003,482.854797 497.132538,495.703552 
	C496.769043,503.007080 495.000977,504.214081 487.795044,504.339264 
	C473.483307,504.587891 475.604523,502.395569 475.294037,517.389587 
	C475.215515,521.179871 476.402191,522.508362 480.353180,522.813416 
	C502.321442,524.509399 524.311279,523.352966 546.286499,523.657532 
	C555.599854,523.786621 555.588989,523.655090 554.986511,514.573303 
	C554.876343,512.913330 554.794922,511.234894 554.911194,509.579803 
	C555.177917,505.781372 553.678467,504.212769 549.707458,504.267120 
	C544.570496,504.337402 539.387939,504.911957 533.477417,503.462677 
M681.871582,453.380310 
	C680.820496,455.078156 677.891052,456.630524 680.133240,458.836548 
	C684.356873,462.992004 689.027283,466.693451 693.587830,470.649475 
	C695.235718,468.786285 697.556335,466.001678 700.045837,463.377319 
	C708.284241,454.692474 716.620728,446.100372 724.828125,437.386566 
	C726.460083,435.653839 728.908325,433.722168 726.890991,430.943665 
	C723.607910,426.421631 720.278931,421.861877 714.991455,418.831848 
	C703.987610,430.284058 693.154663,441.558350 681.871582,453.380310 
M622.965027,541.591675 
	C618.476990,536.300476 616.426819,529.627502 613.341553,523.257141 
	C608.143311,525.721680 605.926147,530.100342 603.092224,533.869751 
	C602.540710,534.603271 602.632629,535.431641 603.198853,536.163330 
	C606.785034,540.797546 609.148315,546.404358 614.085999,550.119019 
	C617.807922,548.198425 620.682983,545.571472 622.965027,541.591675 
M583.835815,567.966736 
	C588.489258,566.240662 593.291138,564.844849 597.424438,561.950073 
	C600.924438,559.498901 601.054688,557.027771 598.042603,553.819458 
	C593.375793,548.848633 591.730225,548.247986 588.413330,551.665344 
	C584.483459,555.714294 582.866272,561.034058 580.871155,566.109375 
	C580.002930,568.318115 581.281799,568.761963 583.835815,567.966736 
M655.706482,478.022675 
	C662.495850,478.903534 669.293091,480.116608 676.875854,478.031830 
	C673.040344,473.836182 670.670349,469.512695 666.579712,467.924774 
	C662.813843,471.322083 659.375732,474.423645 655.706482,478.022675 
M715.312195,469.461487 
	C714.757874,470.373840 713.304565,470.683014 713.499939,472.339050 
	C725.207764,463.723969 734.753235,453.105255 744.328918,442.524750 
	C745.427856,441.310486 746.187927,439.842224 744.736328,437.732330 
	C734.939880,448.308350 725.353455,458.657684 715.312195,469.461487 
M740.929443,417.723724 
	C739.768555,412.957703 735.522278,410.818512 732.366821,407.771484 
	C731.460999,406.896820 730.147156,405.969482 728.897400,407.349518 
	C727.780945,408.582458 728.371765,409.902893 729.262756,410.934326 
	C732.690186,414.902222 735.665955,419.286530 739.724243,422.780884 
	C741.161316,421.452545 740.716003,419.862091 740.929443,417.723724 
z"/>
<path fill="#000000" opacity="1.000000" stroke="none" 
	d="
M378.516388,157.411484 
	C372.571503,148.267242 367.726868,138.997009 365.209290,128.684921 
	C361.663849,114.162796 373.474457,100.078079 387.540314,101.853806 
	C398.217255,103.201698 406.541840,108.483475 413.110504,116.791763 
	C419.676666,125.096893 424.099670,134.655014 428.508545,144.147263 
	C434.534698,157.121567 439.413086,170.561844 443.557739,184.275742 
	C445.033478,189.158798 443.794922,192.407578 439.313141,194.506363 
	C432.727203,197.590469 427.600983,202.666718 421.943451,207.027817 
	C416.839783,210.962021 412.476318,210.468613 409.326202,205.103088 
	C399.793610,188.866226 388.830963,173.566498 378.516388,157.411484 
M380.756622,127.869415 
	C381.976471,130.779755 383.066742,133.752731 384.438019,136.589890 
	C391.351013,150.892868 401.414093,163.215302 409.746429,176.628845 
	C412.265991,180.684921 415.040863,184.582397 417.666412,188.504211 
	C425.349670,184.862366 426.223938,182.908493 424.096497,175.974869 
	C419.832458,162.077576 414.003418,148.867813 406.776031,136.281311 
	C403.050293,129.792953 399.350250,123.203445 392.780762,119.007393 
	C389.614532,116.985062 386.291565,115.319984 382.591522,117.756706 
	C378.920410,120.174370 379.605530,123.660614 380.756622,127.869415 
z"/>
<path fill="#000000" opacity="1.000000" stroke="none" 
	d="
M607.959473,125.052666 
	C611.626465,119.235962 615.286194,113.868439 620.253174,109.559784 
	C626.100098,104.487854 632.669006,101.441391 640.658875,101.615227 
	C654.572876,101.917969 662.584717,112.495491 660.645874,126.762535 
	C658.964844,139.131897 652.094116,149.419891 645.403320,159.538940 
	C636.315857,173.282791 626.934082,186.829758 618.169250,200.790649 
	C611.708069,211.082062 606.308960,211.580383 597.665894,202.916992 
	C593.935181,199.177429 589.371643,196.813522 584.574036,194.845276 
	C580.032471,192.982086 578.696106,190.031601 580.541748,185.332962 
	C588.579956,164.869217 597.254211,144.701797 607.959473,125.052666 
M641.724121,116.561676 
	C633.843140,115.499207 629.266785,120.710190 625.370544,126.030579 
	C613.453857,142.302795 606.803589,161.224472 599.290100,179.688736 
	C598.599365,181.386322 598.568848,183.011978 600.319458,184.070892 
	C602.561707,185.427185 604.331848,187.567596 607.334229,188.331268 
	C618.737061,173.237610 629.118164,157.434952 638.827087,141.185150 
	C641.724121,136.336411 644.304321,131.324966 645.775330,125.786087 
	C646.813416,121.877060 645.943054,118.932510 641.724121,116.561676 
z"/>
<path fill="#000000" opacity="1.000000" stroke="none" 
	d="
M536.443726,368.927673 
	C531.285828,374.303162 527.733398,375.446320 522.241577,371.196777 
	C514.922058,365.533081 508.587006,366.138550 501.498016,371.052246 
	C498.901855,372.851776 496.015198,374.778473 492.242432,373.569580 
	C488.567688,372.392059 485.987122,370.579559 485.684601,366.448822 
	C485.376282,362.239227 487.256165,359.455292 491.110260,357.882202 
	C493.874847,356.753815 496.796082,355.873016 499.337433,354.360718 
	C505.589539,350.640320 506.485229,342.457214 501.306946,337.286743 
	C498.720856,334.704529 495.728668,332.519287 493.225616,329.866364 
	C490.676025,327.164093 489.185120,323.644257 491.656677,320.374878 
	C494.092133,317.153290 497.766754,315.907684 501.929535,317.289368 
	C504.644135,318.190399 507.257751,319.363220 509.346222,321.295563 
	C512.091858,323.835938 514.360779,323.462219 517.184448,321.249695 
	C520.373474,318.750824 523.541382,315.612091 528.336914,317.123810 
	C534.949036,319.208221 536.585693,325.443939 531.520081,330.248383 
	C528.882812,332.749603 525.688538,334.655975 522.804871,336.906616 
	C517.678101,340.907837 517.815430,348.810303 523.054077,352.755219 
	C525.200195,354.371307 527.619446,355.461609 530.131775,356.393250 
	C536.946899,358.920319 538.264648,361.427734 536.443726,368.927673 
z"/>
<path fill="#000000" opacity="1.000000" stroke="none" 
	d="
M574.460327,331.080017 
	C572.966431,326.140442 573.082153,321.484314 573.872192,316.893280 
	C575.106323,309.721710 580.978210,304.147614 588.291443,302.808258 
	C595.053528,301.569855 602.386169,305.155823 606.436157,311.681946 
	C614.083008,324.003937 607.185913,339.903931 592.995056,342.667725 
	C585.343201,344.158020 578.772949,340.152496 574.460327,331.080017 
z"/>
<path fill="#000000" opacity="1.000000" stroke="none" 
	d="
M448.761597,312.574646 
	C453.267090,323.588135 451.462006,332.624786 443.708649,339.161255 
	C434.350128,347.050903 419.896820,343.329651 416.663055,331.494354 
	C413.011383,318.129578 417.395264,306.727173 430.412567,303.364105 
	C437.572845,301.514252 443.465149,304.291687 448.761597,312.574646 
z"/>
<path fill="#000000" opacity="1.000000" stroke="none" 
	d="
M569.398376,691.657776 
	C544.133484,691.504578 519.322754,691.412415 494.511963,691.336121 
	C491.496155,691.326843 488.489807,691.301392 485.820435,689.626892 
	C483.143738,687.947937 480.981934,685.862793 481.774261,682.338440 
	C482.555817,678.861816 484.448059,676.198120 488.259186,675.673279 
	C490.888367,675.311157 493.583862,674.917114 496.207245,675.111328 
	C510.680145,676.182739 525.194519,674.960144 539.640625,675.816650 
	C553.250549,676.623474 566.915955,675.935120 580.486755,677.618896 
	C584.400818,678.104492 586.990601,679.957397 586.842896,683.839661 
	C586.705261,687.459534 585.024231,690.694458 580.779358,691.284424 
	C577.161316,691.787292 573.529053,692.456116 569.398376,691.657776 
z"/>
<path fill="#000000" opacity="1.000000" stroke="none" 
	d="
M507.713593,635.042480 
	C530.786438,636.835144 553.431152,636.755371 576.075989,636.719238 
	C578.227234,636.715759 580.446594,636.733032 582.515198,637.233398 
	C585.839783,638.037537 588.494507,640.005432 588.083801,643.815308 
	C587.662964,647.720398 585.730347,650.946716 581.319824,651.231323 
	C577.006165,651.509705 572.624756,651.666992 568.336182,651.241638 
	C551.206543,649.542664 534.041870,650.766174 516.901917,650.323486 
	C508.248718,650.099915 499.597321,649.721008 490.953186,649.260742 
	C486.249298,649.010193 482.575409,645.130920 482.698639,640.916504 
	C482.814758,636.944153 485.783569,634.681519 491.254181,634.681274 
	C496.583405,634.681091 501.912598,634.891479 507.713593,635.042480 
z"/>
<path fill="#000000" opacity="1.000000" stroke="none" 
	d="
M590.793579,697.699829 
	C592.894897,696.318665 594.588806,694.831482 596.562866,694.086548 
	C599.912598,692.822510 603.246643,693.043518 605.385315,696.456482 
	C607.500122,699.831238 606.645386,702.894775 603.633240,705.252625 
	C592.843445,713.698425 585.721008,725.304321 577.259705,735.750916 
	C575.382996,738.067871 574.015747,740.790100 572.260193,743.214355 
	C569.483398,747.048828 566.912354,747.500183 563.519287,744.387024 
	C556.374329,737.831543 550.646179,730.008850 544.850220,722.310486 
	C542.015076,718.544739 543.422119,713.906494 547.371887,710.898376 
	C551.549744,707.716370 554.547363,707.790833 558.341309,711.736938 
	C561.193787,714.703857 563.635925,718.065369 567.058777,722.219788 
	C575.095642,713.895447 582.803833,705.911499 590.793579,697.699829 
z"/>
<path fill="#000000" opacity="1.000000" stroke="none" 
	d="
M434.682068,593.656921 
	C434.666046,592.208374 434.657135,591.211182 434.656952,590.214050 
	C434.655029,579.572083 437.664612,576.574829 448.242096,576.645569 
	C452.063324,576.671143 455.885620,576.602722 459.706024,576.665039 
	C464.736725,576.747192 467.904297,579.472107 468.244812,584.418274 
	C468.506500,588.219055 468.561768,592.089661 468.153107,595.869141 
	C467.377289,603.044128 464.075745,606.987366 456.975677,607.895447 
	C446.189362,609.275024 437.476990,609.429077 434.682068,593.656921 
M454.704224,586.846863 
	C454.731201,584.351746 453.750610,582.402466 451.036957,582.788269 
	C448.564514,583.139771 449.306122,585.579102 449.175629,587.255920 
	C449.074646,588.552979 449.216553,589.882202 449.372833,591.182495 
	C449.547455,592.635071 450.303986,593.661011 451.910126,593.638916 
	C453.247742,593.620483 454.067535,592.700378 454.344360,591.552429 
	C454.647888,590.293884 454.601074,588.950806 454.704224,586.846863 
z"/>
<path fill="#000000" opacity="1.000000" stroke="none" 
	d="
M437.559479,648.087891 
	C433.035706,636.659424 436.624084,630.128967 448.266663,628.149597 
	C452.009827,627.513245 455.810455,627.216370 459.583588,626.754456 
	C463.952789,626.219482 466.167633,628.713318 466.923248,632.504639 
	C467.801270,636.910034 467.809143,641.484314 467.002991,645.865234 
	C466.241455,650.003601 463.787872,653.115784 459.091980,653.620544 
	C451.348419,654.453125 443.431061,656.053101 437.559479,648.087891 
z"/>
<path fill="#000000" opacity="1.000000" stroke="none" 
	d="
M587.025024,599.383789 
	C587.107483,605.584167 584.666199,608.951904 579.211365,609.074463 
	C564.774902,609.398987 550.327881,609.359009 535.885925,609.287231 
	C530.132568,609.258667 530.957581,604.225586 530.415100,600.801270 
	C529.806519,596.959595 533.078308,596.984619 535.766968,596.686157 
	C550.162659,595.088684 564.608765,595.858032 579.035339,595.699829 
	C582.154297,595.665649 585.018738,596.100830 587.025024,599.383789 
z"/>
<path fill="#000000" opacity="1.000000" stroke="none" 
	d="
M465.051819,673.040161 
	C468.723816,679.580078 467.961731,685.790222 465.061493,691.938293 
	C464.644958,692.821228 463.992950,693.645996 463.288025,694.331177 
	C459.500580,698.012512 448.196564,698.379089 442.890106,695.043579 
	C437.916687,691.917297 435.013397,683.961426 436.763306,678.331482 
	C437.602539,675.631592 439.132141,673.095215 441.869141,672.642334 
	C449.461212,671.386230 457.145081,669.818237 465.051819,673.040161 
M452.307434,676.657898 
	C449.374298,679.202332 450.451843,680.892578 453.845184,682.151733 
	C453.457764,680.239014 458.932007,677.782837 452.307434,676.657898 
z"/>
<path fill="#000000" opacity="1.000000" stroke="none" 
	d="
M520.432739,728.498413 
	C519.482483,732.692627 516.996277,734.481689 513.170288,734.316895 
	C505.543060,733.988403 497.892395,733.837463 490.306488,733.069458 
	C486.428040,732.676880 482.091553,731.741211 481.727600,726.441711 
	C481.427246,722.068359 484.327759,719.304199 490.030487,718.431458 
	C497.462097,717.294067 504.964508,717.484009 512.421631,717.831726 
	C518.227478,718.102417 520.309509,721.123535 520.432739,728.498413 
z"/>
<path fill="#000000" opacity="1.000000" stroke="none" 
	d="
M464.876648,721.326538 
	C468.834167,730.738464 465.740936,735.511292 456.160156,735.269348 
	C451.847626,735.160461 447.531586,734.756409 443.242767,734.263245 
	C438.694885,733.740234 434.259308,728.192505 434.809357,724.004211 
	C435.386444,719.609863 439.670959,716.933777 445.090668,718.028931 
	C448.904968,718.799744 452.716614,718.431091 456.514832,718.750671 
	C459.324463,718.987122 462.126770,719.420654 464.876648,721.326538 
z"/>
<path fill="#000000" opacity="1.000000" stroke="none" 
	d="
M494.444702,595.114136 
	C492.061859,595.279541 490.118195,596.453430 488.168121,595.372314 
	C485.554169,593.923096 483.678101,591.912781 483.921417,588.651367 
	C484.155640,585.511963 486.220581,583.793335 489.012451,583.320740 
	C495.924988,582.150757 502.915161,582.623535 509.878784,582.867981 
	C511.563629,582.927124 512.739563,583.708557 512.476685,585.702820 
	C512.010620,589.239441 511.533234,592.821838 507.233826,593.799744 
	C503.177795,594.722229 499.049377,595.152954 494.444702,595.114136 
z"/>
<path fill="#000000" opacity="1.000000" stroke="none" 
	d="
M520.945435,507.942322 
	C516.240234,511.227020 511.149048,511.546143 507.845093,508.459290 
	C504.542267,505.373535 502.757294,501.551636 504.385681,496.793671 
	C506.157562,491.616455 510.721313,488.366821 515.229065,489.248444 
	C520.948425,490.367096 524.625000,495.422211 523.888489,501.381561 
	C523.604187,503.682068 523.126038,506.007782 520.945435,507.942322 
z"/>
</svg>